<svg width="960" height="794" viewBox="0 0 960 794" fill="none" xmlns="http://www.w3.org/2000/svg">
<g clip-path="url(#clip0_44_67)">
<path d="M747.262 360.066C745.467 354.727 748.032 352.058 749.058 347.312C750.083 342.566 746.749 327.735 746.749 327.735C746.749 327.735 735.979 276.419 732.645 266.334C731.234 262.066 728.17 259.13 725.104 257.159C724.897 255.849 724.596 255.005 724.182 254.765C721.211 253.046 713.811 249.314 708.88 248.282C707.958 246.449 706.864 244.738 705.619 243.181C706.484 241.259 706.886 239.102 706.781 236.938C706.466 231.341 702.802 226.327 703.279 220.746C703.64 216.513 706.316 213.036 707.348 208.954C707.781 207.121 707.883 205.204 707.649 203.323C707.415 201.442 706.848 199.637 705.985 198.019C706.744 198.953 707.503 199.886 708.261 200.82C709.293 199.031 709.79 196.9 709.675 194.754C709.561 192.607 708.841 190.563 707.627 188.935C705.225 185.866 701.208 184.715 699.344 181.18C697.429 177.548 698.457 172.613 696.646 168.91C692.21 159.84 680.853 166.27 674.051 163.104C671.256 161.803 669.131 160.371 665.986 160.474C663.311 160.651 660.668 161.222 658.118 162.173C654.461 163.397 651.279 166.036 649.102 169.649C649.317 169.366 649.552 169.105 649.806 168.87C651.455 167.376 654.345 167.5 655.216 169.703C655.424 170.257 655.511 170.861 655.47 171.463C655.327 174.119 653.321 176.102 651.328 177.431C649.335 178.76 647.092 179.872 645.791 182.067C643.645 185.689 644.907 190.55 644.908 194.941C644.89 197.732 644.332 200.483 643.273 202.991C642.215 205.499 640.684 207.701 638.793 209.434L646.029 206.012C642.574 213.007 640.305 220.701 639.346 228.68L649.13 219.33C645.507 226.002 643.304 233.572 642.704 241.42L650.558 232.112C650.915 232.84 651.095 233.666 651.076 234.502L650.257 238.156C649.968 238.881 649.647 239.588 649.296 240.276C648.032 242.786 646.726 245.876 647.908 248.438L647.913 248.435C646.669 253.277 644.792 258.121 640.617 260.476C645.248 261.036 650.082 258.358 652.173 254.095C652.514 254.862 652.926 255.584 653.401 256.248C653.536 256.443 653.669 256.636 653.801 256.83L652.647 257.72L649.555 260.105C649.555 260.105 629.295 264.851 630.577 273.749C630.63 274.115 630.693 274.552 630.764 275.042L624.935 286.504L616.473 319.726C616.473 319.726 612.113 330.404 612.882 334.853C613.651 339.303 612.882 341.082 612.882 349.091C612.882 357.1 609.548 360.363 612.882 366.889C616.216 373.414 626.218 392.398 626.218 392.398L628.414 394.304C628.307 395.449 628.345 396.605 628.526 397.737C630.577 409.602 649.811 523.209 649.811 523.209C649.811 523.209 640.066 613.085 659.813 618.721C662.289 619.428 664.721 620.069 667.084 620.64L670.071 643.341L668.275 672.113C668.275 672.113 654.684 707.708 679.559 709.784C704.435 711.861 693.151 678.935 693.151 678.935C694.464 676.124 695.001 672.915 694.69 669.74C694.436 667.099 692.301 653.359 690.207 640.143C699.647 638.834 697.881 627.245 696.623 622.15C697.168 621.783 697.575 621.195 697.767 620.501C698.051 619.317 697.39 614.663 696.189 608.14C695.212 601.656 693.541 591.158 692.401 584.047L698.537 585.203L724.438 409.602C724.438 409.602 724.609 406.807 724.531 402.718C728.072 400.6 731.724 398.738 735.466 397.144C743.928 393.288 747.262 379.05 750.083 373.118C752.904 367.185 749.058 365.406 747.262 360.066ZM655.298 248.261C656.136 247.593 657.118 247.208 658.135 247.148C657.916 248.528 655.864 248.931 654.144 249.654C654.46 249.119 654.85 248.649 655.298 248.261V248.261ZM642.374 336.633C644.452 340.581 640.69 351.28 637.3 359.77C635.357 357.834 633.33 358.445 635.706 352.948C637.327 349.464 638.288 345.622 638.527 341.676C638.527 340.998 638.828 336.014 641.355 333.944C641.621 334.875 641.962 335.776 642.374 336.633V336.633ZM634.591 370.709C635.767 370.156 637.547 369.305 639.952 368.36C638.8 370.108 637.484 372.192 636.162 374.466C635.662 374.028 635.259 373.459 634.986 372.806C634.713 372.153 634.578 371.434 634.591 370.709V370.709ZM717.77 374.601C716.211 372.685 714.951 370.971 713.914 369.437C715.849 370.026 717.818 370.66 719.822 371.338C720.821 371.51 721.84 371.432 722.81 371.108C722.899 373.158 722.9 376.084 722.9 376.084L720.091 378.333C719.45 376.985 718.671 375.732 717.77 374.601V374.601ZM725.729 364.314C725.699 364.344 725.667 364.379 725.636 364.41C725.498 363.237 725.269 362.081 724.951 360.956C723.27 354.825 722.372 343.948 721.895 334.665L726.746 353.541C726.746 353.541 727.003 363.033 725.729 364.314V364.314Z" fill="#D0CDE1"/>
<path d="M626.112 286.349C626.112 286.349 599.802 234.045 598.98 228.339C598.158 222.633 585.003 212.172 585.003 212.172C580.508 206.973 573.134 205.328 565.372 205.414C568.295 202.617 557.86 200.737 557.048 198.858C556.226 196.956 553.759 196.956 550.47 194.103C547.182 191.251 538.973 193.628 538.972 193.628C537.737 190.625 536.879 187.433 536.422 184.15C539.925 179.355 541.844 173.278 541.837 167C541.837 166.932 541.833 166.865 541.833 166.797C542.042 167.173 542.252 167.553 542.461 167.943C544.001 157.272 546.72 148.402 541.538 138.668C537.865 131.769 532.115 126.684 525.396 124.394L520.46 128.961L522.379 123.634C520.766 123.35 519.132 123.241 517.501 123.308L513.061 129.912L514.899 123.534C511.045 124.088 507.333 125.56 503.996 127.856C500.659 130.152 497.769 133.222 495.509 136.874C489.858 146.3 490.236 159.403 495.795 168.902C495.813 168.836 495.828 168.771 495.847 168.704C496.092 173.148 497.297 177.45 499.352 181.216C501.407 184.982 504.246 188.091 507.609 190.259L509.006 203.179C507.749 204.529 506.137 205.352 504.428 205.515C501.961 205.515 499.495 213.123 499.495 213.123C499.495 213.123 498.097 213.939 496.59 217.791C492.709 220.847 480.869 230.448 476.477 237.156C473.878 238.635 471.087 241.925 471.54 249.261C472.362 262.574 471.54 324.388 471.54 324.388C471.54 324.388 464.14 376.692 466.607 380.496C469.073 384.3 465.785 396.663 465.785 396.663L468.251 397.297V400.467C468.251 400.467 460.832 440.246 472.362 438.506C491.273 435.653 477.295 403.32 477.295 403.32V399.622L480.584 400.467C480.584 400.467 482.229 387.153 485.517 386.202C486.661 385.871 488.004 382.317 489.269 377.824C490.006 384.833 490.45 389.055 490.45 389.055L495.595 387.733L497.028 393.81C497.381 394.039 497.751 394.233 498.133 394.389L497.028 401.418C497.028 401.418 496.206 409.026 497.028 413.781C497.443 416.179 512.705 467.435 527.733 517.66L527.449 529.801C527.449 529.801 520.049 539.311 521.694 545.968C523.338 552.624 517.583 607.781 517.583 607.781L512.65 635.36L513.891 635.802L512.751 640.634C511.77 641.207 510.897 642.001 510.183 642.968C503.606 651.527 495.384 676.252 495.384 676.252C495.384 676.252 480.584 701.929 503.606 700.978C526.627 700.027 528.271 690.517 528.271 690.517C528.271 690.517 531.56 665.791 531.56 664.84C531.56 663.889 529.916 654.114 529.916 654.114L529.277 653.299L529.723 641.436L534.027 642.968C534.027 642.968 538.138 618.242 541.426 615.389C542.576 614.392 545.634 603.285 549.125 589.019C552.694 600.904 556.15 642.001 557.271 645.731C556.874 646.359 556.524 647.025 556.226 647.723C552.53 655.926 548.412 663.865 543.893 671.497C543.893 671.497 517.583 689.566 543.893 694.321C543.893 694.321 558.692 695.272 566.092 689.566C573.492 683.86 593.224 675.301 593.224 673.399C593.224 671.497 588.291 643.538 583.358 646.582L580.054 637.791L583.358 636.311L562.542 528.241C563.035 525.938 563.396 523.6 563.626 521.242C563.626 516.262 574.272 419.292 576.981 394.696C588.904 398.603 599.802 370.036 599.802 370.036L602.505 364.408L606.38 367.183C606.38 367.183 609.668 357.673 614.601 356.722C619.535 355.771 628.579 305.369 628.579 298.712C628.503 294.438 627.664 290.229 626.112 286.349V286.349ZM587.805 360.857C586.996 359.371 586.057 357.985 585.003 356.722C587.152 350.246 588.803 343.563 589.936 336.751C591.58 326.29 587.469 292.055 587.469 292.055L587.397 289.73C591.433 295.857 596.513 304.026 596.513 306.319C596.513 307.427 596.736 308.519 597.164 309.509C597.592 310.499 598.214 311.361 598.98 312.025L594.047 331.996C594.047 331.996 590.758 341.506 589.936 346.261C589.443 349.08 589.168 351.944 589.113 354.82L590.279 355.654L587.805 360.857Z" fill="#D0CDE1"/>
<path d="M249.709 303.951L254.096 302.809L236.008 243.848L196.954 227.206C196.954 227.206 196.804 227.398 196.528 227.728C193.197 223.999 191.783 218.588 191.192 214.329C194.333 212.862 197.155 210.611 199.457 207.737C201.758 204.862 203.483 201.436 204.508 197.702C205.533 193.968 205.833 190.018 205.386 186.134C204.939 182.251 203.756 178.53 201.922 175.236C205.14 174.342 206.289 170.965 207.369 166.939C206.701 166.71 206.018 166.539 205.328 166.425C205.834 165.112 206.34 163.799 206.846 162.487C205.957 162.394 205.068 162.302 204.178 162.21C204.406 160.983 204.633 159.756 204.86 158.528C203.726 159.434 202.592 160.34 201.458 161.246C201.843 159.957 201.939 158.577 201.736 157.234C201.533 155.891 201.039 154.63 200.299 153.569C198.793 151.464 196.828 149.862 194.608 148.928C190.266 146.952 185.537 146.398 180.94 147.327C176.344 148.257 172.057 150.633 168.552 154.195L168.306 153.087C161.365 159.259 156.823 168.363 155.676 178.402C154.587 188.326 158.709 198.431 164.066 206.284C164.021 205.941 163.973 205.599 163.924 205.258C164.155 205.627 164.394 205.989 164.641 206.344L165.299 235.289L163.65 236.924C163.647 236.926 135.977 251.406 134.898 268.7L134.895 268.713C133.234 277.132 132.412 320.878 132.412 320.878H134.689L132.412 337.995L117.612 404.564C117.612 404.564 98.7019 433.094 115.146 438.8C125.364 442.345 128.279 428.633 129.023 417.741C129.615 420.441 131.386 422.266 134.878 422.633C135.153 422.662 135.447 422.686 135.731 422.713C127.955 445.953 133.234 521.535 133.234 521.535C129.123 531.045 177.632 596.663 177.632 596.663L180.553 594.861L181.185 596.323C179.56 596.504 178.455 596.663 178.455 596.663V626.144C178.455 626.144 171.055 655.624 180.921 661.33C183.474 662.806 186.137 661.732 188.682 659.334C188.196 668.432 187.499 682.008 187.499 685.105C187.499 689.859 198.187 698.418 198.187 698.418C198.187 698.418 200.654 708.879 220.386 708.879C240.119 708.879 225.32 681.301 225.32 681.301L214.631 653.722C214.631 653.722 213.831 654.174 211.411 651.896L212.278 640.867L217.098 641.359L223.675 530.094C223.675 530.094 229.43 431.192 230.253 415.976C230.445 411.098 230.346 406.21 229.955 401.348L254.096 343.701L249.709 303.951ZM231.897 340.848L229.43 350.79V328.803L231.897 340.848ZM129.252 411.372C129.273 407.887 129.123 405.515 129.123 405.515L145.197 368.332L144.745 379.839C144.745 379.839 131.872 398.673 129.252 411.372ZM166.944 518.682L182.566 454.966L191.61 531.996L190.961 560C189.86 557.427 188.976 554.736 188.321 551.967C185.854 540.555 166.944 518.682 166.944 518.682Z" fill="#D0CDE1"/>
<path d="M389.44 670.037C381.736 666.369 366.782 658.506 364.969 654.313C363.157 650.12 354.094 617.623 354.094 617.623L351.76 617.82C351.459 603.057 350.174 545.843 348.203 539.003C348.203 539.003 357.719 448.327 338.686 412.161L335.257 396.137C336.383 389.713 336.238 374.838 335.514 372.326C334.608 369.182 345.937 359.223 342.765 352.933C339.593 346.644 330.983 325.154 330.983 325.154C330.983 325.154 331.889 311.526 319.654 298.947C319.654 298.947 316.078 275.534 299.967 275.185C297.789 270.789 294.74 263.798 295.637 260.685C296.597 257.352 300.27 246.962 302.344 241.146C303.446 240.57 304.504 239.889 305.508 239.11C318.322 232.469 327.355 216.506 327.355 197.857C327.355 177.895 317.007 161 302.746 155.335C303.382 153.398 303.641 151.324 303.507 149.259C303.373 147.194 302.849 145.188 301.971 143.383C301.093 141.577 299.883 140.017 298.427 138.812C296.97 137.608 295.303 136.787 293.542 136.41C291.782 136.032 289.971 136.106 288.238 136.627C286.505 137.148 284.891 138.102 283.512 139.423C282.133 140.744 281.022 142.399 280.256 144.272C279.491 146.144 279.09 148.188 279.083 150.259C278.299 148.109 277.987 145.768 278.176 143.444C278.364 141.121 279.047 138.888 280.164 136.944C281.28 135 282.795 133.407 284.574 132.305C286.353 131.204 288.34 130.629 290.357 130.633C291.151 130.634 291.944 130.724 292.723 130.902C290.036 129.424 286.976 129.13 284.115 130.075C281.255 131.02 278.79 133.139 277.184 136.036C275.577 138.932 274.939 142.406 275.389 145.807C275.838 149.209 277.344 152.304 279.626 154.512C279.766 155.03 279.933 155.538 280.125 156.033C266.706 162.296 257.135 178.658 257.135 197.857C257.135 215.667 265.373 231.03 277.275 238.161C277.212 243.954 275.969 253.721 269.062 259.673C265.494 257.788 260.542 255.718 257.364 256.656C255.721 255.175 253.242 254.686 249.868 258.588C243.071 266.45 237.18 286.892 237.18 299.471C237.18 312.05 238.539 384.906 238.539 384.906C238.539 384.906 231.289 388.051 236.273 392.768C237.303 393.76 238.595 394.315 239.934 394.341L244.883 436.796C244.883 436.796 241.711 477.678 253.947 478.203C254.906 478.263 255.859 477.993 256.685 477.425L247.602 524.851C247.602 524.851 226.757 540.575 210.444 571.499C202.041 587.427 197.852 597.226 195.76 602.995L192.771 600.851L182.348 623.913C182.348 623.913 159.237 640.162 164.222 652.217C169.207 664.272 173.738 667.417 173.738 667.417L176.91 665.844L182.801 678.424C182.801 678.424 198.208 704.107 223.132 691.003C224.302 689.185 224.933 686.98 224.933 684.713C224.933 682.447 224.302 680.242 223.132 678.424C219.054 671.61 208.631 656.934 208.631 656.934L215.428 617.099L214.022 616.091L257.119 555.775C257.119 555.775 269.807 546.865 274.339 539.003C278.87 531.141 306.966 449.899 306.966 449.899L322.826 534.81C322.826 534.81 321.92 565.734 325.998 585.651C328.221 596.824 329.671 608.183 330.334 619.622L329.17 619.72L331.889 643.307C331.889 643.307 320.107 676.851 328.264 679.472C334.067 681.206 339.975 682.432 345.937 683.141L346.843 679.472C346.843 679.472 381.736 701.486 394.425 685.238C394.425 685.237 397.144 673.706 389.44 670.037ZM265.275 412.685C266.635 414.258 266.182 421.595 266.182 421.595L263.463 442.037L260.747 456.215C260.372 449.517 259.614 442.854 258.478 436.271L257.224 397.098C257.47 397.278 257.741 397.409 258.025 397.485C258.931 397.485 258.478 388.575 258.478 388.575C258.478 388.575 259.007 386.983 259.667 384.472C261.429 390.572 263.579 394.552 266.182 395.389L266.635 402.202C266.635 402.202 260.744 405.347 266.182 405.347C266.497 405.334 266.81 405.28 267.116 405.187L266.635 407.968C266.635 407.968 263.916 411.113 265.275 412.685Z" fill="#D0CDE1"/>
<path d="M381.694 694.454C582.876 694.454 745.967 691.345 745.967 687.509C745.967 683.673 582.876 680.564 381.694 680.564C180.512 680.564 17.4219 683.673 17.4219 687.509C17.4219 691.345 180.512 694.454 381.694 694.454Z" fill="#3F3D56"/>
<path d="M509.188 723.392C730.487 723.392 909.885 715.359 909.885 705.45C909.885 695.542 730.487 687.509 509.188 687.509C287.889 687.509 108.49 695.542 108.49 705.45C108.49 715.359 287.889 723.392 509.188 723.392Z" fill="#3F3D56"/>
<path d="M435.234 750.015C543.84 750.015 631.881 741.982 631.881 732.073C631.881 722.164 543.84 714.132 435.234 714.132C326.629 714.132 238.587 722.164 238.587 732.073C238.587 741.982 326.629 750.015 435.234 750.015Z" fill="#3F3D56"/>
<path d="M719.447 762.747C767.808 762.747 807.012 758.601 807.012 753.487C807.012 748.373 767.808 744.227 719.447 744.227C671.086 744.227 631.881 748.373 631.881 753.487C631.881 758.601 671.086 762.747 719.447 762.747Z" fill="#3F3D56"/>
<path d="M599.357 794C622.294 794 640.888 789.854 640.888 784.74C640.888 779.626 622.294 775.48 599.357 775.48C576.42 775.48 557.826 779.626 557.826 784.74C557.826 789.854 576.42 794 599.357 794Z" fill="#3F3D56"/>
<path d="M261.104 754.645C284.041 754.645 302.635 750.499 302.635 745.385C302.635 740.27 284.041 736.124 261.104 736.124C238.167 736.124 219.573 740.27 219.573 745.385C219.573 750.499 238.167 754.645 261.104 754.645Z" fill="#3F3D56"/>
<path d="M466.258 640.63L470.261 673.04L490.276 670.725L488.274 637.157L466.258 640.63Z" fill="#FFB8B8"/>
<path d="M371.186 640.63L367.183 673.04L347.168 670.725L349.17 637.157L371.186 640.63Z" fill="#FFB8B8"/>
<path d="M342.165 304.952C342.165 304.952 324.151 329.26 328.154 367.458C332.157 405.655 339.162 492.469 339.162 492.469L344.166 646.418L376.19 644.102L381.194 513.304L397.206 407.97L440.238 530.667C440.238 530.667 461.254 645.26 462.254 645.26C463.255 645.26 492.277 641.787 492.277 641.787L478.266 506.359C478.266 506.359 456.25 309.582 443.24 306.11C430.23 302.637 342.165 304.952 342.165 304.952Z" fill="#2F2E41"/>
<path d="M492.277 666.095C492.277 666.095 474.263 652.205 467.258 668.41C460.253 684.615 466.257 696.19 466.257 696.19C466.257 696.19 472.262 700.821 469.26 705.451C466.257 710.081 465.257 740.176 491.276 735.546C517.296 730.916 504.286 699.663 504.286 699.663L492.277 666.095Z" fill="#2F2E41"/>
<path d="M345.167 666.095C345.167 666.095 363.181 652.205 370.186 668.41C377.191 684.615 371.187 696.19 371.187 696.19C371.187 696.19 365.182 700.821 368.184 705.451C371.187 710.081 372.187 740.176 346.168 735.546C320.148 730.916 333.158 699.663 333.158 699.663L345.167 666.095Z" fill="#2F2E41"/>
<path d="M366.683 79.8165C366.683 79.8165 375.69 108.754 368.685 124.959C361.679 141.165 379.693 159.685 379.693 159.685C379.693 159.685 426.728 131.904 420.723 118.014C414.719 104.124 404.712 85.6041 406.713 74.029L366.683 79.8165Z" fill="#FFB8B8"/>
<path d="M384.196 90.8129C401.883 90.8129 416.22 74.2293 416.22 53.7725C416.22 33.3157 401.883 16.7322 384.196 16.7322C366.51 16.7322 352.172 33.3157 352.172 53.7725C352.172 74.2293 366.51 90.8129 384.196 90.8129Z" fill="#FFB8B8"/>
<path d="M361.179 123.223C361.179 123.223 393.311 154.15 417.275 110.328L442.24 126.696L455.249 302.637C455.249 302.637 382.195 351.253 347.168 309.582L352.172 146.373L361.179 123.223Z" fill="#D0CDE1"/>
<path d="M371.269 105.898L326.153 140.585L342.165 226.241L321.149 359.355L355.174 300.322L371.269 105.898Z" fill="#575A89"/>
<path d="M411.144 96.2433L422.225 104.703L467.258 123.223L460.253 266.754L479.267 359.355L452.247 375.56C452.247 375.56 447.243 331.575 416.22 309.582C385.197 287.589 404.066 102.831 411.144 96.2433Z" fill="#575A89"/>
<path d="M336.16 321.157L349.17 331.575C349.17 331.575 332.658 351.831 329.655 348.359C328.787 347.394 328.112 346.22 327.68 344.919C327.247 343.619 327.068 342.225 327.154 340.835L324.151 332.732L336.16 321.157Z" fill="#FFB8B8"/>
<path d="M422.644 318.905L418.221 326.945C418.221 326.945 405.212 333.89 408.214 338.52C411.216 343.15 436.235 353.568 441.239 343.15L446.242 332.732L422.644 318.905Z" fill="#FFB8B8"/>
<path d="M332.157 139.428L325.152 140.586L313.643 226.82C313.643 226.82 309.14 242.447 314.144 279.487C319.147 316.527 324.102 340.647 324.102 340.647L346.168 322.315L336.16 292.22L349.17 182.256L332.157 139.428Z" fill="#575A89"/>
<path d="M451.247 120.908L467.259 123.223C467.259 123.223 485.272 145.216 488.274 168.366C491.277 191.516 490.276 257.494 490.276 257.494L444.241 341.992L419.223 321.157L454.249 249.392L437.236 163.736L451.247 120.908Z" fill="#575A89"/>
<path d="M414.734 20.2718C409.892 11.1762 402.312 4.4737 393.453 1.45435L386.947 7.47491L389.476 0.452607C387.349 0.0772455 385.196 -0.0666824 383.045 0.0227088L377.191 8.72863L379.614 0.320917C374.534 1.05109 369.64 2.99076 365.241 6.01761C360.841 9.04447 357.032 13.0928 354.052 17.9075C346.601 30.334 345.344 47.6154 352.673 60.1391C354.684 52.9885 357.126 46.2788 359.138 39.1281C360.719 39.3774 362.321 39.3864 363.904 39.1549L366.352 32.5494L367.035 38.8755C374.622 38.111 385.874 36.4328 393.066 34.895L392.366 30.042L396.55 34.0748C398.754 33.4881 400.062 32.9561 399.954 32.5494C405.303 42.523 410.602 48.8934 415.951 58.8669C417.981 44.7989 421.566 33.1051 414.734 20.2718Z" fill="#2F2E41"/>
<path d="M412.961 57.6238C414.158 57.6238 415.129 55.3786 415.129 52.6089C415.129 49.8392 414.158 47.594 412.961 47.594C411.764 47.594 410.793 49.8392 410.793 52.6089C410.793 55.3786 411.764 57.6238 412.961 57.6238Z" fill="#FFB8B8"/>
<path d="M759.345 707.28C760.267 743.809 741.814 757.196 718.656 757.978C718.118 757.996 717.582 758.007 717.049 758.011C715.975 758.021 714.912 758 713.859 757.949C692.915 756.944 676.336 744.084 675.478 710.113C674.591 674.956 712.318 629.277 715.148 625.898L715.153 625.895C715.261 625.766 715.316 625.702 715.316 625.702C715.316 625.702 758.423 670.754 759.345 707.28Z" fill="#6C63FF"/>
<path d="M716.988 752.442L731.699 727.139L717.018 755.164L717.049 758.011C715.975 758.021 714.912 758 713.858 757.949L714.588 721.35L714.568 721.067L714.595 721.013L714.665 717.554L698.555 690.5L714.646 714.966L714.703 715.697L715.254 688.044L701.339 659.996L715.294 683.187L715.148 625.898L715.148 625.707L715.153 625.895L716.077 671.046L728.758 652.706L716.118 674.936L716.395 699.67L728.065 675.53L716.438 703.307L716.592 717.06L733.563 683.434L716.644 721.858L716.988 752.442Z" fill="#3F3D56"/>
<path d="M222.943 652.877C223.866 689.406 205.413 702.793 182.255 703.575C181.717 703.593 181.181 703.604 180.648 703.608C179.574 703.618 178.511 703.597 177.457 703.546C156.513 702.541 139.935 689.681 139.077 655.71C138.189 620.553 175.917 574.874 178.747 571.495L178.752 571.492C178.86 571.363 178.915 571.299 178.915 571.299C178.915 571.299 222.021 616.351 222.943 652.877Z" fill="#6C63FF"/>
<path d="M180.587 698.039L195.298 672.736L180.617 700.761L180.648 703.608C179.574 703.618 178.511 703.597 177.458 703.546L178.187 666.947L178.167 666.664L178.194 666.61L178.264 663.151L162.154 636.097L178.245 660.563L178.302 661.294L178.853 633.641L164.938 605.593L178.893 628.784L178.747 571.495L178.747 571.304L178.752 571.492L179.676 616.643L192.357 598.302L179.717 620.533L179.994 645.267L191.664 621.127L180.037 648.904L180.191 662.657L197.162 629.031L180.243 667.455L180.587 698.039Z" fill="#3F3D56"/>
<path d="M623.761 758.778C624.303 780.22 613.471 788.078 599.878 788.537C599.562 788.547 599.248 788.554 598.935 788.556C598.304 788.562 597.68 788.55 597.062 788.52C584.768 787.93 575.037 780.382 574.533 760.441C574.012 739.805 596.157 712.992 597.819 711.009L597.822 711.007C597.885 710.931 597.917 710.894 597.917 710.894C597.917 710.894 623.22 737.338 623.761 758.778Z" fill="#6C63FF"/>
<path d="M598.899 785.287L607.534 770.435L598.917 786.885L598.935 788.556C598.304 788.562 597.68 788.55 597.062 788.52L597.49 767.037L597.479 766.871L597.494 766.839L597.535 764.809L588.079 748.929L597.524 763.29L597.558 763.719L597.881 747.487L589.714 731.023L597.904 744.636L597.819 711.009L597.819 710.897L597.822 711.007L598.364 737.51L605.808 726.744L598.389 739.793L598.551 754.311L605.401 740.142L598.576 756.446L598.667 764.519L608.628 744.781L598.697 767.335L598.899 785.287Z" fill="#3F3D56"/>
<path d="M959.912 59.2503C959.941 59.1445 959.971 59.0373 960 58.9312C959.987 58.9777 959.972 59.0225 959.96 59.0691L959.912 59.2503Z" fill="#2F2E41"/>
<path d="M820.065 673.449L894.188 545.953L820.217 687.165L820.371 701.511C814.96 701.559 809.601 701.455 804.295 701.198L807.972 516.784L807.871 515.362L808.006 515.087L808.358 497.661L727.185 361.345L808.263 484.618L808.55 488.302L811.327 348.97L741.215 207.641L811.527 324.493L810.793 35.8329L810.794 34.8721L810.818 35.817L815.472 263.32L879.371 170.908L815.682 282.919L817.076 407.548L875.877 285.915L817.292 425.871L818.069 495.171L903.58 325.737L818.329 519.347L820.065 673.449Z" fill="#3F3D56"/>
<path d="M63.2025 668.506L113.641 581.749L63.3056 677.84L63.4109 687.602C59.7287 687.635 56.0822 687.564 52.4715 687.389L54.9732 561.901L54.9047 560.933L54.997 560.746L55.2364 548.888L0 456.129L55.1713 540.013L55.367 542.519L57.2566 447.708L9.54719 351.538L57.3924 431.052L56.8931 234.627L56.8941 233.974L56.9104 234.617L60.0774 389.426L103.559 326.542L60.2198 402.762L61.1688 487.569L101.181 404.801L61.3158 500.037L61.8441 547.194L120.032 431.899L62.0209 563.645L63.2025 668.506Z" fill="#3F3D56"/>
</g>
<defs>
<clipPath id="clip0_44_67">
<rect width="960" height="794" fill="white"/>
</clipPath>
</defs>
</svg>
