<svg width="660" height="667" viewBox="0 0 660 667" fill="none" xmlns="http://www.w3.org/2000/svg">
<g clip-path="url(#clip0_31_131)">
<rect width="660" height="667" fill="white"/>
<path opacity="0.1" d="M248.431 315.665H151.731C148.307 315.665 145.531 318.611 145.531 322.245V344.082C145.531 347.716 148.307 350.661 151.731 350.661H248.431C251.856 350.661 254.632 347.716 254.632 344.082V322.245C254.632 318.611 251.856 315.665 248.431 315.665Z" fill="#6C63FF"/>
<path opacity="0.1" d="M362.614 350.661H265.915C262.49 350.661 259.714 353.607 259.714 357.241V379.078C259.714 382.712 262.49 385.657 265.915 385.657H362.614C366.039 385.657 368.815 382.712 368.815 379.078V357.241C368.815 353.607 366.039 350.661 362.614 350.661Z" fill="#6C63FF"/>
<path opacity="0.1" d="M248.431 263.162H151.731C148.307 263.162 145.531 266.108 145.531 269.742V291.579C145.531 295.213 148.307 298.158 151.731 298.158H248.431C251.856 298.158 254.632 295.213 254.632 291.579V269.742C254.632 266.108 251.856 263.162 248.431 263.162Z" fill="#6C63FF"/>
<path opacity="0.1" d="M362.614 298.167H265.915C262.49 298.167 259.714 301.113 259.714 304.747V326.584C259.714 330.218 262.49 333.163 265.915 333.163H362.614C366.039 333.163 368.815 330.218 368.815 326.584V304.747C368.815 301.113 366.039 298.167 362.614 298.167Z" fill="#6C63FF"/>
<path opacity="0.1" d="M248.431 193.162H151.731C148.307 193.162 145.531 196.107 145.531 199.741V221.578C145.531 225.212 148.307 228.158 151.731 228.158H248.431C251.856 228.158 254.632 225.212 254.632 221.578V199.741C254.632 196.107 251.856 193.162 248.431 193.162Z" fill="#6C63FF"/>
<path opacity="0.1" d="M362.614 228.166H265.915C262.49 228.166 259.714 231.112 259.714 234.746V256.583C259.714 260.217 262.49 263.162 265.915 263.162H362.614C366.039 263.162 368.815 260.217 368.815 256.583V234.746C368.815 231.112 366.039 228.166 362.614 228.166Z" fill="#6C63FF"/>
<path opacity="0.1" d="M248.431 140.668H151.731C148.307 140.668 145.531 143.613 145.531 147.247V169.084C145.531 172.718 148.307 175.664 151.731 175.664H248.431C251.856 175.664 254.632 172.718 254.632 169.084V147.247C254.632 143.613 251.856 140.668 248.431 140.668Z" fill="#6C63FF"/>
<path d="M102.293 295.254L63.9033 544.972L237.49 525.491L229.979 504.238L94.3645 516.193L126.077 294.811L102.293 295.254Z" fill="#3F3D56"/>
<path d="M57.2266 11.8855L290.901 11L358.5 553.828L123.991 587.478L57.2266 11.8855Z" fill="#3F3D56"/>
<path d="M82.6807 32.6954H271.289L337.219 537.445L142.768 565.782L82.6807 32.6954Z" fill="white"/>
<path d="M260.557 514.74C261.742 517.149 262.627 519.753 264.17 521.922C268.677 528.316 277.231 529.316 283.649 533.487C283.97 533.66 284.235 533.932 284.408 534.266C284.7 535.001 284.05 535.772 283.424 536.232C278.558 539.854 272.174 539.934 266.223 539.889C264.224 539.965 262.223 539.762 260.273 539.287C257.127 538.402 254.431 536.073 251.327 535.125C249.717 534.699 248.069 534.452 246.411 534.39L239.893 533.921C238.158 533.894 236.44 533.556 234.811 532.92C233.999 532.591 233.28 532.048 232.719 531.344C232.159 530.639 231.776 529.795 231.606 528.891C231.423 527.421 232.015 525.995 232.366 524.561C233.2 521.161 232.942 517.052 235.437 514.732C236.465 513.896 237.644 513.293 238.9 512.961C243.436 511.339 248.066 510.031 252.762 509.047C256.626 508.241 258.846 511.251 260.557 514.74Z" fill="#3F3D56"/>
<path d="M186.832 533.894C186.999 535.781 187.049 537.941 185.764 539.261C184.964 539.966 183.997 540.425 182.968 540.589C176.801 542.112 169.924 542.218 164.558 538.659C164 538.32 163.507 537.872 163.106 537.339C162.659 536.613 162.405 535.771 162.372 534.904C162.18 532.398 162.906 529.927 163.565 527.51C165.125 521.774 166.31 515.93 167.112 510.021C167.179 509.534 182.86 512.677 183.903 514.324C185.213 516.361 185.222 521.249 185.572 523.676C186.101 527.064 186.521 530.47 186.832 533.894Z" fill="#3F3D56"/>
<path d="M245.201 303.463L249.374 344.631C250.208 353.043 251.085 361.5 250.509 369.939C249.841 379.68 247.271 389.421 248.356 399.073C248.781 402.828 249.749 406.511 249.891 410.293C249.918 412.807 249.798 415.321 249.532 417.82C247.646 442.8 253.613 467.586 256.951 492.39C257.488 495.449 257.606 498.575 257.302 501.67C256.868 504.814 256 508.94 258.637 510.428L233.868 519.956C230.705 515.75 232.8 509.206 232.199 503.866C231.648 499.058 229.161 494.772 227.834 490.141C226.632 485.979 226.382 481.595 225.99 477.274C223.828 453.745 217.193 430.828 215.641 407.246C215.591 404.969 215.312 402.704 214.807 400.49C213.972 397.559 212.303 395 211.085 392.246C209.215 388.11 208.297 383.576 207.396 379.096L202.096 352.751C196.739 361.217 196.956 372.233 195.896 382.381C194.41 396.549 191.089 410.479 188.385 424.47C187.757 427.48 187.286 430.525 186.974 433.591C186.273 441.8 187.667 450.088 186.924 458.288C186.09 467.79 182.326 477.061 183.236 486.563C183.736 491.823 185.639 496.8 186.924 501.9C188.209 507.001 188.844 512.598 186.882 517.459C180.028 514.789 172.665 513.926 165.426 514.944C157.473 506.31 156.063 494.267 155.52 482.18C154.978 470.092 156.288 457.987 154.869 446.015C154.452 442.473 153.801 439.019 153.692 435.486C153.342 424.16 158.474 413.56 161.028 402.553C163.326 392.644 163.546 382.321 161.671 372.312C160.419 365.698 158.266 359.277 157.498 352.574C156.455 343.179 158.224 333.712 160.002 324.432C161.195 318.171 162.38 311.911 163.732 305.685C165.184 299 166.912 292.172 170.792 286.7C177.001 277.942 188.026 274.054 198.333 274.905C208.639 275.755 218.262 280.731 226.774 286.93C233.483 291.688 239.665 297.234 245.201 303.463Z" fill="#192534"/>
<path d="M217.511 145.821C217.043 146.619 216.717 147.502 216.551 148.425C216.342 150.24 217.386 151.905 218.22 153.49C219.289 155.527 220.111 157.699 220.665 159.954C221.063 161.351 221.185 162.818 221.024 164.267C220.821 165.355 220.454 166.401 219.939 167.366C218.329 170.66 215.942 173.707 212.695 175.079C210.181 176.061 207.44 176.179 204.859 175.416C202.296 174.646 199.872 173.424 197.69 171.803C195.851 170.566 194.197 169.044 192.783 167.287C191.433 165.365 190.296 163.285 189.395 161.088C187.659 157.236 185.898 153.118 186.215 148.894C186.232 148.511 186.299 148.133 186.415 147.77C186.686 147.114 187.065 146.514 187.534 145.998C191.094 141.521 192.92 135.777 192.641 129.926L204.8 132.857C207.479 133.504 210.158 134.15 212.804 134.956C214.974 135.62 218.312 136.541 219.722 138.595C221.133 140.65 218.47 143.944 217.511 145.821Z" fill="#FBBEBE"/>
<path d="M211.001 143.625C223.206 143.625 233.1 133.127 233.1 120.177C233.1 107.226 223.206 96.7278 211.001 96.7278C198.796 96.7278 188.902 107.226 188.902 120.177C188.902 133.127 198.796 143.625 211.001 143.625Z" fill="#FBBEBE"/>
<path d="M207.446 167.481C208.381 165.312 210.4 163.939 212.245 162.576C214.089 161.212 215.959 159.467 216.317 157.103C216.339 156.568 216.464 156.044 216.685 155.562C217.394 154.429 219.08 154.995 220.09 155.828C222.543 157.856 224.212 160.734 225.84 163.541C227.945 166.954 229.747 170.568 231.223 174.335C233.568 180.897 233.851 188.061 234.11 195.066C234.344 201.441 234.569 207.915 233.109 214.095C232.191 218.01 230.605 221.808 230.513 225.838C230.238 240.475 225.447 254.467 225.114 269.104C225.089 273.337 225.289 277.568 225.715 281.776L226.499 291.278C214.365 290.54 202.264 289.409 190.196 287.886C189.845 283.512 188.669 279.27 187.592 275.037C183.184 257.732 180.358 240.017 179.155 222.136C178.512 212.643 177.853 203.186 176.86 193.728C175.967 185.13 174.214 176.478 175.266 167.898C175.816 163.997 176.972 160.221 178.687 156.722C179.23 155.328 180.162 154.145 181.358 153.331C181.956 153.024 182.59 152.807 183.244 152.684C185.136 152.278 187.057 152.038 188.986 151.967C189.457 151.925 189.932 151.973 190.388 152.109C191.201 152.539 191.869 153.225 192.299 154.075C196.017 160.006 201.28 164.664 207.446 167.481V167.481Z" fill="#F2F2F2"/>
<path d="M197.198 165.604C198.75 167.96 202.038 168.517 203.474 170.917C203.957 171.92 204.324 172.982 204.567 174.079C205.443 177.045 207.212 179.622 208.289 182.518C209.841 186.68 209.883 191.284 209.9 195.756C210.052 199.318 209.794 202.887 209.132 206.383C208.631 208.57 207.813 210.651 207.212 212.811C206.192 216.486 205.813 220.327 206.094 224.146C206.094 224.971 206.302 225.781 206.695 226.493C207.261 227.204 208 227.737 208.831 228.034C211.277 229.176 213.839 230.345 216.509 230.079C217.057 230.061 217.588 229.873 218.037 229.539C218.346 229.24 218.601 228.883 218.788 228.485L220.457 225.492C221.967 222.756 223.545 219.692 222.96 216.566C222.536 214.953 221.898 213.411 221.066 211.988C219.999 209.678 219.09 207.29 218.345 204.842C215.683 196.721 212.987 188.486 212.387 179.914C212.033 176.652 212.375 173.347 213.388 170.244C214.172 168.334 215.157 166.525 216.326 164.851C216.061 164.475 215.696 164.193 215.277 164.043C214.858 163.893 214.406 163.881 213.981 164.01C213.141 164.285 212.328 164.644 211.552 165.082C209.098 166.18 206.378 165.781 203.899 165.028C202.931 164.727 201.396 163.7 200.394 163.771C200.052 163.815 197.256 165.71 197.198 165.604Z" fill="#6C63FF"/>
<path d="M216.735 165.507C216.234 165.082 215.458 164.692 215.015 165.188C214.867 165.403 214.759 165.646 214.698 165.905C214.264 167.145 212.988 167.756 211.827 168.234C210.667 168.712 209.416 168.978 208.715 168.066C208.493 167.711 208.385 167.29 208.404 166.865C208.424 166.44 208.57 166.032 208.823 165.701C209.336 165.045 209.955 164.491 210.651 164.063C214.49 161.188 217.105 156.822 217.928 151.914C219.005 152.822 219.717 154.128 219.923 155.571C220.198 156.979 220.231 158.431 220.507 159.839C220.916 161.858 221.825 163.744 222.034 165.79C222.143 166.879 222.034 167.977 222.034 169.066C222.072 170.131 222.189 171.191 222.385 172.237C220.432 170.041 219.055 167.464 216.735 165.507Z" fill="#F2F2F2"/>
<path d="M199.843 159.494C199.009 158.653 198.174 157.856 197.34 156.997C193.678 153.204 190.912 148.546 189.269 143.404C188.201 144.289 187.025 145.458 187 146.946C187.095 147.999 187.478 148.999 188.101 149.824C191.257 155.098 193.341 161.012 194.218 167.189C194.669 166.442 195.294 165.83 196.032 165.413C196.77 164.996 197.597 164.787 198.433 164.807C199.751 164.807 205.668 168.526 206.094 167.588C206.72 166.118 200.845 160.495 199.843 159.494Z" fill="#F2F2F2"/>
<path d="M218.479 152.445C226.329 160.737 235.939 166.911 246.503 170.448C247.553 170.691 248.527 171.215 249.332 171.971C249.933 172.768 250.338 173.711 250.509 174.716C252.545 183.164 253.229 191.904 253.905 200.591C254.082 202.028 254.054 203.485 253.822 204.913C253.329 207.233 251.777 209.11 250.25 210.854C245.46 216.3 239.993 221.994 239.184 229.397C239.122 230.825 238.963 232.245 238.708 233.648C238.291 235.295 237.365 236.747 236.797 238.35C234.01 246.24 240.31 255.795 236.472 263.145C238.55 267.381 239.975 271.943 240.694 276.658C240.823 278.445 241.209 280.201 241.838 281.865C242.981 284.397 245.334 286.009 247.187 288.063C252.837 294.209 253.53 303.613 253.864 312.194C254.072 317.029 254.005 322.581 250.525 325.751C248.514 327.602 245.768 328.204 243.14 328.665C239.643 329.285 235.837 329.727 232.741 327.894C230.521 326.584 229.011 324.29 227.567 322.077C224.83 317.853 222.084 313.637 219.488 309.307C215.382 302.48 211.51 294.678 212.695 286.673C212.361 294.864 210.734 303.117 206.945 310.255C203.156 317.392 197.056 323.352 189.653 325.707C182.251 328.063 173.596 326.398 168.08 320.66C166.279 318.692 164.733 316.48 163.482 314.08C160.342 308.374 158.05 302.188 156.688 295.741C156.33 294.067 156.062 292.199 156.855 290.702C157.231 289.994 157.807 289.436 158.199 288.736C159.518 286.354 158.249 283.352 156.972 280.926C155.028 281.121 153.634 278.695 153.809 276.622C153.984 274.55 155.153 272.753 155.979 270.867C158.399 265.305 157.865 258.832 156.697 252.837C155.528 246.842 153.784 240.883 153.918 234.764C154.06 228.29 149.67 222.464 146.323 217.053C144.454 214.007 142.276 211.173 140.648 207.976C137.255 201.249 136.471 193.383 138.462 186.051C139.63 182.286 141.163 178.66 143.035 175.23L145.789 169.748C146.302 168.439 147.098 167.275 148.113 166.352C149.128 165.429 150.333 164.773 151.631 164.435L170.684 156.465C173.12 155.582 175.433 154.355 177.561 152.817C179.889 150.957 181.625 148.389 183.845 146.406C184.168 146.045 184.556 145.757 184.986 145.558C185.416 145.359 185.879 145.252 186.348 145.246C188.134 145.414 188.769 147.805 188.952 149.673C189.369 153.853 192.29 157.395 193.283 161.46C198.658 183.908 210.033 204.611 213.154 227.529C216.659 218.594 220.164 209.641 224.654 201.229C225.363 200.021 225.958 198.743 226.432 197.412C226.971 195.493 227.172 193.485 227.024 191.488C226.799 185.723 225.355 180.091 223.928 174.521C222.076 166.941 220.406 159.954 218.479 152.445Z" fill="#3F3D56"/>
<path d="M254.79 221.038C255.157 224.81 255.516 228.592 256.176 232.32C256.943 236.632 258.112 240.847 259.272 245.062C259.838 247.432 260.65 249.727 261.692 251.907C262.07 252.54 262.37 253.222 262.585 253.935C262.994 255.706 262.059 257.477 261.659 259.248C260.457 264.562 264.062 270.468 261.792 275.365C261.108 276.853 259.914 278.084 259.464 279.678C258.938 281.511 259.464 283.468 259.739 285.363C260.449 290.676 258.738 296.078 257.052 301.187L254.181 309.812C251.561 304.641 248.915 299.416 245.293 294.979C243.999 293.386 242.589 291.907 241.396 290.224C239.616 287.58 238.21 284.674 237.223 281.599C234.675 274.292 233.219 266.607 232.908 258.823C232.701 256.61 232.943 254.376 233.618 252.271C234.17 251.053 234.789 249.87 235.47 248.728C237.707 244.451 238.166 239.386 238.124 234.498C238.083 229.61 237.59 224.704 238.124 219.843C238.56 215.783 239.691 211.843 241.462 208.216C242.507 205.867 244.06 203.813 245.994 202.221C247.438 201.074 249.198 200.467 251.001 200.494C253.73 200.662 253.104 203.15 253.338 205.55L254.79 221.038Z" fill="#3F3D56"/>
<path d="M132.036 208.986C130.334 214.299 128.798 219.66 127.429 225.067C126.094 230.38 124.901 235.723 123.849 241.095C123.309 243.457 123.007 245.874 122.948 248.303C123.055 251.132 123.512 253.934 124.308 256.636C129.683 277.189 139.48 296.148 150.513 313.974C153.666 309.802 157.41 306.175 161.613 303.224C161.956 303.008 162.243 302.703 162.447 302.338C162.553 301.994 162.584 301.628 162.538 301.27C162.491 300.911 162.369 300.568 162.18 300.266C159.134 293.642 154.31 287.807 152.791 280.607C152.157 277.614 152.132 274.497 151.414 271.522C150.488 267.67 148.418 264.145 147.943 260.196C147.434 255.892 148.777 251.199 146.874 247.382C150.755 245.78 153 241.538 154.644 237.473C156.401 233.315 157.657 228.939 158.383 224.447C159.526 215.837 157.937 207.067 153.868 199.52C151.88 195.755 149.33 192.357 146.315 189.46C145.322 188.513 142.977 185.794 141.533 185.821C139.605 185.865 138.988 189.177 138.437 190.664C136.209 196.739 134.006 202.823 132.036 208.986Z" fill="#3F3D56"/>
<path d="M166.603 308.103C166.853 308.298 167.137 308.563 167.07 308.882C167.004 309.201 166.762 309.281 166.545 309.414C165.416 310.263 164.574 311.473 164.141 312.867C162.754 316.184 161.545 319.581 160.519 323.042C158.652 320.073 156.455 317.353 153.976 314.939C152.073 313.08 149.945 311.317 148.927 308.802C148.927 308.732 153.3 305.305 153.701 304.933C154.928 303.773 156.472 300.558 157.74 299.85C159.176 299.053 160.544 302.179 161.637 303.436C163.141 305.164 164.805 306.727 166.603 308.103V308.103Z" fill="#FBBEBE"/>
<path d="M234.469 116.51C234.411 115.35 234.269 114.066 233.434 113.314C232.702 112.776 231.819 112.517 230.931 112.579C226.065 112.41 221.033 113.278 216.443 111.543C213.422 110.4 210.843 108.204 207.897 106.84C204.951 105.477 201.179 105.114 198.8 107.407C196.998 109.178 196.505 111.897 195.879 114.403C194.501 119.934 192.048 125.098 188.677 129.563C186.416 128.819 184.796 126.676 183.753 124.427C180.206 116.758 181.951 107.602 184.471 99.4729C185.306 96.7455 186.232 94.0446 187.158 91.3526L189.195 85.4019C191.867 85.1234 194.35 83.8124 196.171 81.7181L197.048 83.9762C199.311 83.8898 201.495 83.071 203.307 81.6296C204.008 83.0287 205.811 83.4006 207.271 82.949C208.731 82.4974 209.992 81.6296 211.444 81.1779C215.324 79.8497 219.464 81.8952 223.536 82.1255C225.26 82.0809 226.984 82.1341 228.702 82.2848C233.509 83.1084 236.906 87.9079 238.375 92.8315C239.351 96.1079 240.161 100.137 243.207 101.297C243.274 102.537 241.204 102.776 241.029 103.954C241.008 104.346 241.095 104.737 241.279 105.078L244.075 111.445C242.738 111.801 241.332 111.727 240.035 111.233C238.775 114.376 234.594 118.91 234.469 116.51Z" fill="#192534"/>
<path d="M376.143 130.369C377.559 135.225 378.674 140.173 379.481 145.184C380.082 148.938 380.432 153.109 378.404 156.244C386.132 143.909 394.202 131.201 405.944 123.24C403.553 120.49 401.734 117.236 400.606 113.69C399.477 110.145 399.064 106.387 399.393 102.661C399.46 101.917 389.754 105.804 389.011 106.247C385.606 108.257 382.485 110.755 379.164 112.906C377.445 114.013 370.284 116.634 370.217 118.22C370.217 119.238 373.063 122.355 373.597 123.426C374.645 125.653 375.497 127.977 376.143 130.369Z" fill="#FBBEBE"/>
<path d="M412.053 595.607C410.145 594.181 407.909 593.329 405.581 593.142C403.254 592.955 400.923 593.439 398.834 594.544C395.053 596.616 392.508 600.539 389.07 603.196C383.161 607.747 375.358 608.11 368.439 610.572C366.603 611.227 364.651 612.202 363.874 614.114C363.614 614.918 363.51 615.77 363.569 616.618C363.628 617.465 363.848 618.292 364.217 619.047C365.373 621.782 367.4 623.998 369.942 625.307C373.046 626.884 376.618 626.954 380.056 626.999L409.933 627.371C419.113 627.486 428.352 627.601 437.474 628.814C439.602 629.097 441.905 629.407 443.783 628.3C446.837 626.529 447.188 622.049 446.954 618.356C446.339 609 444.369 599.801 441.112 591.082C440.753 590.117 440.278 589.018 439.268 588.841C438.551 588.807 437.847 589.046 437.282 589.514C428.853 594.828 418.179 597.829 409.216 593.579" fill="black"/>
<path d="M427.009 393.353C423.67 413.923 425.848 435.061 429.604 455.543C430.295 459.621 431.207 463.654 432.333 467.622C433.677 472.138 435.488 476.477 436.748 481.02C439.952 492.532 439.502 504.84 439.026 516.857L436.84 571.538C436.656 576.125 436.489 580.818 437.791 585.193C438.317 586.964 438.959 589.178 437.632 590.373C437.113 590.769 436.507 591.016 435.871 591.091C429.9 592.258 423.732 591.276 418.346 588.301L417.753 533.062C417.57 516.033 417.378 498.934 414.908 482.118C412.946 468.746 409.541 455.552 409.316 442.021C409.082 427.853 412.354 413.87 415.692 400.136C416.41 397.196 419.03 395.044 421.183 393.051C421.935 392.265 422.849 391.677 423.854 391.334C424.855 391.041 426.391 392.458 427.009 393.353Z" fill="#3F3D56"/>
<path opacity="0.1" d="M427.009 393.353C423.67 413.923 425.848 435.061 429.604 455.543C430.295 459.621 431.207 463.654 432.333 467.622C433.677 472.138 435.488 476.477 436.748 481.02C439.952 492.532 439.502 504.84 439.026 516.857L436.84 571.538C436.656 576.125 436.489 580.818 437.791 585.193C438.317 586.964 438.959 589.178 437.632 590.373C437.113 590.769 436.507 591.016 435.871 591.091C429.9 592.258 423.732 591.276 418.346 588.301L417.753 533.062C417.57 516.033 417.378 498.934 414.908 482.118C412.946 468.746 409.541 455.552 409.316 442.021C409.082 427.853 412.354 413.87 415.692 400.136C416.41 397.196 419.03 395.044 421.183 393.051C421.935 392.265 422.849 391.677 423.854 391.334C424.855 391.041 426.391 392.458 427.009 393.353Z" fill="black"/>
<path d="M364.342 329.063C363.107 334.456 365.727 340.044 365.435 345.587C365.268 348.943 364.025 352.291 364.6 355.585C365.176 358.879 367.396 361.358 368.581 364.378C369.446 366.9 369.903 369.558 369.933 372.242C370.275 378.865 370 385.524 369.766 392.122C369.374 403.191 369.082 414.322 370.459 425.293C371.658 434.799 374.093 444.082 377.695 452.878C378.786 455.27 379.688 457.755 380.39 460.307C380.851 462.685 381.158 465.093 381.308 467.515C382.101 475.393 384.094 483.082 387.208 490.282C389.337 495.215 393.05 499.138 394.227 504.371C395.345 509.383 394.594 514.67 395.404 519.744C395.996 523.507 397.44 527.067 398.241 530.786C399.284 535.595 399.259 540.58 399.785 545.486C401.287 559.654 407.355 573.823 403.733 587.566C403.007 590.329 401.88 593.136 402.389 595.952C402.639 597.333 403.274 598.697 402.99 600.07C402.756 601.239 401.905 602.142 401.471 603.249C400.636 605.321 401.521 607.783 403.007 609.385C404.591 610.88 406.433 612.034 408.431 612.786C414.582 615.575 420.949 618.409 427.626 618.347C428.436 618.393 429.245 618.235 429.988 617.887C431.189 617.222 431.782 615.779 432.291 614.451L435.713 605.471C436.13 604.382 436.547 603.107 435.971 602.098C435.57 601.544 435.085 601.065 434.536 600.681C431.774 598.21 432.399 593.597 433.134 589.886C435.01 580.356 436.049 570.663 436.238 560.93C436.606 541.519 433.593 522.223 430.588 503.069C429.545 496.419 428.494 489.724 426.416 483.349C424.338 476.973 421.275 470.836 421.776 464.212C422.31 457.057 420.557 449.557 421.776 442.499C422.994 435.442 424.922 428.534 426.165 421.486C427.776 412.338 428.177 403.014 428.669 393.733C428.878 389.943 429.145 386.029 430.814 382.664C431.79 380.698 433.209 379.016 434.302 377.112C437.123 372.162 437.574 366.025 440.269 360.995C441.546 358.613 443.307 356.515 444.242 353.964C444.898 351.953 445.242 349.841 445.26 347.712C445.524 342.368 445.245 337.009 444.425 331.729C430.219 324.058 414.463 320.18 398.525 320.429C392.424 320.536 386.257 321.191 380.532 323.431C375.074 325.583 370.1 328.603 364.342 329.063Z" fill="#3F3D56"/>
<path d="M398.558 609.616C396.105 612.857 396.272 617.488 394.703 621.305C392.8 625.936 388.56 628.903 384.538 631.603L359.501 648.428C358.133 649.314 356.664 650.403 356.163 652.05C355.925 653.102 355.968 654.203 356.288 655.229C356.886 657.451 358 659.478 359.528 661.125C361.056 662.771 362.95 663.984 365.034 664.651C367.25 665.211 369.526 665.458 371.803 665.386L383.061 665.546C386.49 665.688 389.925 665.546 393.334 665.121C396.455 664.642 399.493 663.695 402.598 663.093C408.247 662.004 414.056 662.101 419.714 661.047C423.179 660.324 426.601 659.387 429.962 658.24C434.052 656.938 438.216 655.583 441.721 653.007C442.686 652.383 443.469 651.488 443.983 650.421C444.575 648.96 444.25 647.286 443.916 645.736L438.542 620.676C438.238 618.589 437.522 616.594 436.439 614.823C435.245 613.14 433.1 612.024 431.239 612.742C430.471 613.113 429.746 613.576 429.078 614.123C426.324 616.045 422.794 616.364 419.539 615.761C417.436 615.363 414.657 614.752 412.963 613.273C411.677 612.148 411.294 610.404 410.2 609.129C409.434 608.294 408.51 607.639 407.49 607.207C406.47 606.775 405.375 606.575 404.277 606.621C403.179 606.667 402.103 606.957 401.118 607.473C400.132 607.989 399.26 608.719 398.558 609.616V609.616Z" fill="black"/>
<path d="M382.326 126.915C398.979 126.915 412.479 112.591 412.479 94.9213C412.479 77.2515 398.979 62.9273 382.326 62.9273C365.674 62.9273 352.174 77.2515 352.174 94.9213C352.174 112.591 365.674 126.915 382.326 126.915Z" fill="#FBBEBE"/>
<path d="M359.068 96.7986C361.955 95.0807 361.955 90.1306 364.909 88.4836C367.864 86.8365 371.219 89.6967 373.113 92.5835C375.874 96.8113 377.791 101.594 378.746 106.637C379.013 108.071 379.264 109.639 380.282 110.639C381.3 111.64 382.635 111.764 383.937 111.906C387.748 112.307 391.565 112.673 395.387 113.004C399.644 113.367 404.133 113.659 407.997 111.72C409.522 110.996 410.832 109.845 411.786 108.39C412.551 106.993 413.098 105.474 413.405 103.892C415.4 95.8423 417.411 87.6954 417.578 79.3715C417.645 75.9356 417.361 72.3758 415.8 69.365C414.891 67.594 413.556 66.0532 413.18 64.105C412.804 62.1569 414.014 59.6774 415.917 59.8899C414.197 59.965 412.484 59.6196 410.91 58.8804C409.399 57.9949 408.281 56.091 408.815 54.3554C404.576 54.931 401.488 50.4856 398.183 47.6077C397.646 47.0423 396.92 46.7242 396.163 46.7221C395.583 46.8758 395.022 47.1048 394.494 47.404C392.825 48.0239 391.081 46.8461 389.37 46.3325C384.78 44.9688 378.947 48.2629 375.542 44.7208C375.867 46.9789 373.255 48.4932 371.102 48.4489C368.949 48.4046 366.729 47.5634 364.692 48.3249C364.987 48.8973 365.16 49.5317 365.197 50.1829C365.234 50.834 365.134 51.4858 364.906 52.0916C364.678 52.6974 364.327 53.2422 363.877 53.6871C363.428 54.1321 362.891 54.4661 362.306 54.6653L363.315 57.0031C362.275 57.2238 361.313 57.7487 360.539 58.5185C359.765 59.2884 359.209 60.2725 358.934 61.3599C357.824 66.0089 358.1 72.6149 358.367 77.3968C358.5 79.4955 360.428 96.0105 359.068 96.7986Z" fill="#192534"/>
<path d="M384.797 136.16C369.65 154.234 365.794 179.675 362.564 203.629L357.807 238.996C356.572 248.171 355.304 257.345 354.227 266.545C353.476 272.841 352.775 279.235 353.593 285.522C354.235 290.481 355.796 295.263 357.098 300.036C360.485 312.555 362.172 325.523 362.105 338.547C363.115 335.395 366.612 334.12 369.683 333.411C395.452 327.479 422.338 330.525 446.345 342.098C450.559 329.568 449.767 315.86 450.943 302.613C452.612 283.724 458.362 265.421 460.065 246.568C460.691 239.545 460.766 232.488 460.833 225.43C460.883 220.25 460.933 215.016 459.915 209.942C458.78 204.328 456.385 199.095 453.906 194.003C447.054 179.849 439.442 166.124 431.106 152.897C426.911 146.238 422.535 139.711 417.978 133.318C415.67 130.077 413.313 126.871 410.91 123.701C408.581 120.628 407.572 117.963 403.875 119.805C396.889 123.276 389.879 130.094 384.797 136.16Z" fill="#6C63FF"/>
<path d="M393.476 286.594C389.781 286.735 386.081 286.611 382.401 286.222C379.672 285.938 376.885 285.513 374.223 286.222C373.065 286.531 371.982 287.095 371.043 287.878C370.695 288.206 370.445 288.635 370.324 289.112C370.202 289.589 370.214 290.094 370.359 290.563C370.503 291.033 370.773 291.448 371.136 291.758C371.5 292.067 371.94 292.257 372.403 292.305L375.258 292.571C377.069 292.739 378.955 292.934 380.365 294.342C380.944 294.895 381.312 295.654 381.4 296.476C381.575 298.539 379.889 299.664 378.379 300.523C376.231 301.593 374.246 302.995 372.487 304.685C371.11 306.097 370.244 307.977 370.042 309.998C370.035 310.178 370.074 310.357 370.153 310.516C370.232 310.676 370.35 310.81 370.493 310.906C370.637 311.002 370.802 311.056 370.972 311.063C371.142 311.07 371.31 311.03 371.46 310.946C374.799 309.174 376.977 303.923 380.641 304.8C377.308 305.92 374.454 308.249 372.579 311.379C372.116 312.127 371.905 313.018 371.98 313.909C372.055 314.799 372.411 315.637 372.99 316.286C373.57 316.935 374.339 317.357 375.174 317.484C376.008 317.611 376.858 317.435 377.586 316.985C378.128 316.648 378.652 316.278 379.155 315.878C381.637 313.746 383.86 311.295 385.773 308.581C383.102 314.558 380.398 321.554 383.47 327.496C383.623 327.823 383.862 328.096 384.158 328.281C384.454 328.466 384.795 328.557 385.139 328.541C386.107 328.435 386.391 327.469 386.549 326.619C387.05 323.883 387.175 320.996 388.444 318.561C391.381 312.911 398.625 312.362 404.141 309.608C410.759 306.35 415.291 299.336 417.119 291.845C417.758 289.66 417.87 287.34 417.444 285.097C416.217 280.058 410.359 278.898 406.595 281.334C401.98 284.442 399.301 286.399 393.476 286.594Z" fill="#FBBEBE"/>
<path opacity="0.1" d="M387.617 187.477C393.459 197.049 403.599 202.442 412.295 209.163C414.417 210.629 416.267 212.496 417.753 214.671C419.948 218.266 420.257 222.836 419.806 227.068C419.239 232.656 417.544 238.031 415.867 243.362L412.22 254.918C409.908 262.25 407.521 269.733 403.123 275.896C401.997 277.464 400.686 279.137 400.737 281.103C400.834 282.239 401.201 283.33 401.805 284.273C403.212 286.71 405.067 288.822 407.259 290.484C409.451 292.145 411.936 293.321 414.565 293.943C416.14 294.368 417.789 294.368 419.364 293.943C421.617 293.235 423.311 291.287 424.88 289.445C432.391 280.652 439.902 271.734 445.327 261.418C450.626 251.35 453.797 240.165 456.718 229.087C457.921 225.009 458.759 220.82 459.222 216.575C459.839 208.605 457.87 200.635 454.649 193.436C451.427 186.237 446.996 179.719 442.431 173.388C438.122 167.169 433.335 161.34 428.118 155.961C419.038 146.955 407.93 141.659 395.779 146.769C387.2 150.382 383.987 157.918 383.219 167.57C382.569 174.539 384.116 181.54 387.617 187.477V187.477Z" fill="black"/>
<path d="M390.655 185.05C396.497 194.623 406.645 200.016 415.333 206.737C417.448 208.217 419.289 210.096 420.766 212.28C422.961 215.875 423.27 220.436 422.819 224.677C422.243 230.265 420.557 235.64 418.872 240.971L415.225 252.483C412.913 259.815 410.526 267.289 406.128 273.461C405.01 275.029 403.699 276.693 403.749 278.668C403.841 279.802 404.21 280.892 404.818 281.829C406.223 284.267 408.076 286.381 410.267 288.043C412.458 289.706 414.941 290.884 417.57 291.508C419.147 291.933 420.799 291.933 422.377 291.508C424.63 290.809 426.316 288.852 427.893 287.019C435.404 278.216 442.915 269.308 448.34 258.992C453.639 248.923 456.81 237.739 459.731 226.652C460.937 222.578 461.776 218.391 462.235 214.149C462.852 206.179 460.883 198.209 457.67 191.001C454.457 183.793 450.017 177.284 445.452 170.953C441.129 164.766 436.33 158.97 431.106 153.623C422.034 144.626 410.927 139.322 398.776 144.44C390.188 148.053 386.983 155.58 386.207 165.241C385.595 172.184 387.158 179.147 390.655 185.05V185.05Z" fill="#6C63FF"/>
<path d="M575.191 502.68C575.198 504.989 574.974 507.292 574.524 509.551C574.44 509.976 574.348 510.437 574.257 510.8C571.887 520.886 565.202 528.262 557.223 528.732C556.956 528.732 556.689 528.732 556.389 528.732C547.952 528.732 540.816 521.01 538.463 510.375C538.396 510.091 538.338 509.808 538.279 509.489C537.829 507.23 537.605 504.927 537.611 502.618C537.611 488.21 546.015 476.539 556.389 476.539C566.762 476.539 575.191 488.299 575.191 502.68Z" fill="#3F3D56"/>
<path opacity="0.1" d="M575.192 502.68C575.198 504.989 574.974 507.292 574.524 509.551C574.441 509.976 574.349 510.437 574.257 510.8C573.973 510.8 573.698 510.8 573.422 510.8C571.356 510.682 569.302 510.386 567.28 509.914C565.489 510.502 563.659 510.946 561.805 511.243C560.384 511.47 558.952 511.612 557.516 511.668H556.064C554.344 511.668 552.627 511.547 550.923 511.305C548.167 510.914 545.461 510.201 542.853 509.179C541.425 509.684 539.97 510.098 538.496 510.419C538.43 510.136 538.371 509.852 538.313 509.534C537.863 507.274 537.639 504.971 537.645 502.662C537.645 488.254 546.049 476.583 556.423 476.583C566.796 476.583 575.192 488.299 575.192 502.68Z" fill="black"/>
<path d="M615.25 454.1C615.258 447.76 613.857 441.507 611.161 435.849L589.078 443.137L608.465 431.041C605.213 426.058 600.948 421.913 595.985 418.912C591.022 415.911 585.488 414.131 579.79 413.702C578.883 412.242 577.888 410.846 576.81 409.522L545.097 419.998L571.11 403.766C566.134 399.714 560.294 397.026 554.105 395.939C547.917 394.853 541.571 395.401 535.63 397.537C529.689 399.672 524.336 403.328 520.044 408.182C515.752 413.036 512.653 418.937 511.023 425.364L538.187 458.545L508.719 435.929C501.255 441.546 495.94 449.823 493.745 459.25C491.55 468.677 492.619 478.627 496.759 487.288C500.898 495.948 507.833 502.742 516.298 506.432C524.763 510.122 534.196 510.462 542.878 507.391C550.731 510.454 559.313 510.706 567.313 508.108C572.891 509.41 578.673 509.37 584.233 507.988C589.794 506.607 594.992 503.921 599.446 500.126C603.899 496.332 607.494 491.527 609.966 486.064C612.438 480.602 613.725 474.62 613.731 468.56C613.731 467.675 613.731 466.789 613.648 465.904C614.729 462.075 615.269 458.097 615.25 454.1V454.1Z" fill="#6C63FF"/>
<path opacity="0.1" d="M614.591 461.609C602.929 459.264 590.97 459.102 579.256 461.131C565.995 463.46 552.442 468.578 539.473 464.841C531.862 462.645 525.285 457.562 517.849 454.737C510.675 452.081 502.947 451.591 495.525 453.32C492.697 460.499 491.877 468.39 493.162 476.051C494.447 483.711 497.784 490.817 502.773 496.519C507.763 502.221 514.194 506.279 521.298 508.206C528.402 510.134 535.879 509.851 542.836 507.391C550.689 510.454 559.271 510.706 567.272 508.108C572.849 509.41 578.631 509.37 584.192 507.988C589.753 506.607 594.951 503.921 599.404 500.127C603.857 496.332 607.452 491.527 609.924 486.064C612.397 480.602 613.683 474.62 613.689 468.56C613.689 467.675 613.689 466.789 613.606 465.904C614.009 464.493 614.337 463.059 614.591 461.609Z" fill="black"/>
</g>
<defs>
<clipPath id="clip0_31_131">
<rect width="660" height="667" fill="white"/>
</clipPath>
</defs>
</svg>
