<svg xmlns="http://www.w3.org/2000/svg" xmlns:xlink="http://www.w3.org/1999/xlink" width="660" zoomAndPan="magnify" viewBox="0 0 495 500.249999" height="667" preserveAspectRatio="xMidYMid meet" version="1.0"><defs><clipPath id="id1"><path d="M 23 26.03125 L 271 26.03125 L 271 499.5 L 23 499.5 Z M 23 26.03125 " clip-rule="nonzero"/></clipPath><clipPath id="id2"><path d="M 312 338 L 338 338 L 338 499.5 L 312 499.5 Z M 312 338 " clip-rule="nonzero"/></clipPath><clipPath id="id3"><path d="M 275 280 L 343 280 L 343 499.5 L 275 499.5 Z M 275 280 " clip-rule="nonzero"/></clipPath></defs><path fill="#6c63ff" d="M 180.5 276.445312 L 101.0625 276.445312 C 98.25 276.445312 95.96875 278.867188 95.96875 281.855469 L 95.96875 299.804688 C 95.96875 302.789062 98.25 305.210938 101.0625 305.210938 L 180.5 305.210938 C 183.3125 305.210938 185.59375 302.789062 185.59375 299.804688 L 185.59375 281.855469 C 185.59375 278.867188 183.3125 276.445312 180.5 276.445312 Z M 180.5 276.445312 " fill-opacity="0.098" fill-rule="nonzero"/><path fill="#6c63ff" d="M 274.300781 305.210938 L 194.863281 305.210938 C 192.050781 305.210938 189.769531 307.632812 189.769531 310.617188 L 189.769531 328.566406 C 189.769531 331.554688 192.050781 333.976562 194.863281 333.976562 L 274.300781 333.976562 C 277.113281 333.976562 279.394531 331.554688 279.394531 328.566406 L 279.394531 310.617188 C 279.394531 307.632812 277.113281 305.210938 274.300781 305.210938 Z M 274.300781 305.210938 " fill-opacity="0.098" fill-rule="nonzero"/><path fill="#6c63ff" d="M 180.5 233.292969 L 101.0625 233.292969 C 98.25 233.292969 95.96875 235.714844 95.96875 238.699219 L 95.96875 256.648438 C 95.96875 259.636719 98.25 262.054688 101.0625 262.054688 L 180.5 262.054688 C 183.3125 262.054688 185.59375 259.636719 185.59375 256.648438 L 185.59375 238.699219 C 185.59375 235.714844 183.3125 233.292969 180.5 233.292969 Z M 180.5 233.292969 " fill-opacity="0.098" fill-rule="nonzero"/><path fill="#6c63ff" d="M 274.300781 262.0625 L 194.863281 262.0625 C 192.050781 262.0625 189.769531 264.484375 189.769531 267.472656 L 189.769531 285.421875 C 189.769531 288.40625 192.050781 290.828125 194.863281 290.828125 L 274.300781 290.828125 C 277.113281 290.828125 279.394531 288.40625 279.394531 285.421875 L 279.394531 267.472656 C 279.394531 264.484375 277.113281 262.0625 274.300781 262.0625 Z M 274.300781 262.0625 " fill-opacity="0.098" fill-rule="nonzero"/><path fill="#6c63ff" d="M 180.5 175.757812 L 101.0625 175.757812 C 98.25 175.757812 95.96875 178.175781 95.96875 181.164062 L 95.96875 199.113281 C 95.96875 202.097656 98.25 204.519531 101.0625 204.519531 L 180.5 204.519531 C 183.3125 204.519531 185.59375 202.097656 185.59375 199.113281 L 185.59375 181.164062 C 185.59375 178.175781 183.3125 175.757812 180.5 175.757812 Z M 180.5 175.757812 " fill-opacity="0.098" fill-rule="nonzero"/><path fill="#6c63ff" d="M 274.300781 204.527344 L 194.863281 204.527344 C 192.050781 204.527344 189.769531 206.949219 189.769531 209.9375 L 189.769531 227.882812 C 189.769531 230.871094 192.050781 233.292969 194.863281 233.292969 L 274.300781 233.292969 C 277.113281 233.292969 279.394531 230.871094 279.394531 227.882812 L 279.394531 209.9375 C 279.394531 206.949219 277.113281 204.527344 274.300781 204.527344 Z M 274.300781 204.527344 " fill-opacity="0.098" fill-rule="nonzero"/><path fill="#6c63ff" d="M 180.5 132.609375 L 101.0625 132.609375 C 98.25 132.609375 95.96875 135.03125 95.96875 138.015625 L 95.96875 155.964844 C 95.96875 158.953125 98.25 161.375 101.0625 161.375 L 180.5 161.375 C 183.3125 161.375 185.59375 158.953125 185.59375 155.964844 L 185.59375 138.015625 C 185.59375 135.03125 183.3125 132.609375 180.5 132.609375 Z M 180.5 132.609375 " fill-opacity="0.098" fill-rule="nonzero"/><path fill="#3f3d56" d="M 60.449219 259.667969 L 28.914062 464.921875 L 171.511719 448.910156 L 165.34375 431.441406 L 53.9375 441.269531 L 79.988281 259.304688 Z M 60.449219 259.667969 " fill-opacity="1" fill-rule="nonzero"/><g clip-path="url(#id1)"><path fill="#3f3d56" d="M 23.429688 26.757812 L 215.390625 26.03125 L 270.921875 472.203125 L 78.273438 499.859375 Z M 23.429688 26.757812 " fill-opacity="1" fill-rule="nonzero"/></g><path fill="#ffffff" d="M 44.339844 43.863281 L 199.277344 43.863281 L 253.4375 458.734375 L 93.699219 482.027344 Z M 44.339844 43.863281 " fill-opacity="1" fill-rule="nonzero"/><path fill="#3f3d56" d="M 190.460938 440.074219 C 191.4375 442.054688 192.164062 444.195312 193.429688 445.976562 C 197.132812 451.230469 204.160156 452.054688 209.433594 455.480469 C 209.695312 455.625 209.914062 455.847656 210.054688 456.121094 C 210.296875 456.726562 209.761719 457.359375 209.246094 457.738281 C 205.25 460.714844 200.003906 460.78125 195.117188 460.746094 C 193.472656 460.808594 191.832031 460.640625 190.230469 460.25 C 187.644531 459.523438 185.429688 457.609375 182.878906 456.828125 C 181.558594 456.480469 180.203125 456.277344 178.839844 456.226562 L 173.488281 455.839844 C 172.0625 455.816406 170.648438 455.539062 169.3125 455.015625 C 168.644531 454.746094 168.054688 454.300781 167.59375 453.722656 C 167.132812 453.140625 166.820312 452.449219 166.679688 451.703125 C 166.527344 450.496094 167.015625 449.324219 167.304688 448.144531 C 167.988281 445.351562 167.777344 441.972656 169.828125 440.066406 C 170.671875 439.378906 171.640625 438.882812 172.671875 438.609375 C 176.398438 437.277344 180.199219 436.203125 184.058594 435.394531 C 187.234375 434.730469 189.054688 437.207031 190.460938 440.074219 Z M 190.460938 440.074219 " fill-opacity="1" fill-rule="nonzero"/><path fill="#3f3d56" d="M 129.898438 455.816406 C 130.035156 457.367188 130.074219 459.144531 129.019531 460.226562 C 128.363281 460.808594 127.570312 461.183594 126.722656 461.320312 C 121.65625 462.570312 116.007812 462.660156 111.601562 459.734375 C 111.140625 459.453125 110.734375 459.085938 110.40625 458.648438 C 110.039062 458.050781 109.832031 457.359375 109.804688 456.648438 C 109.644531 454.585938 110.242188 452.554688 110.785156 450.570312 C 112.066406 445.855469 113.039062 441.050781 113.699219 436.195312 C 113.753906 435.792969 126.632812 438.378906 127.492188 439.730469 C 128.566406 441.40625 128.574219 445.421875 128.863281 447.417969 C 129.296875 450.203125 129.640625 453.003906 129.898438 455.816406 Z M 129.898438 455.816406 " fill-opacity="1" fill-rule="nonzero"/><path fill="#192534" d="M 177.847656 266.417969 L 181.273438 300.253906 C 181.960938 307.167969 182.679688 314.121094 182.207031 321.054688 C 181.660156 329.0625 179.546875 337.070312 180.4375 345.003906 C 180.789062 348.089844 181.582031 351.117188 181.699219 354.222656 C 181.722656 356.289062 181.625 358.355469 181.40625 360.410156 C 179.855469 380.941406 184.757812 401.316406 187.5 421.703125 C 187.941406 424.21875 188.039062 426.785156 187.789062 429.332031 C 187.429688 431.914062 186.71875 435.304688 188.886719 436.53125 L 168.539062 444.359375 C 165.9375 440.902344 167.660156 435.523438 167.167969 431.136719 C 166.714844 427.183594 164.671875 423.660156 163.582031 419.855469 C 162.59375 416.433594 162.386719 412.832031 162.066406 409.277344 C 160.289062 389.9375 154.839844 371.101562 153.5625 351.71875 C 153.523438 349.847656 153.292969 347.988281 152.878906 346.167969 C 152.191406 343.757812 150.820312 341.65625 149.820312 339.390625 C 148.285156 335.992188 147.53125 332.265625 146.789062 328.582031 L 142.4375 306.929688 C 138.035156 313.886719 138.214844 322.941406 137.34375 331.28125 C 136.121094 342.929688 133.394531 354.378906 131.171875 365.878906 C 130.65625 368.351562 130.269531 370.855469 130.015625 373.375 C 129.4375 380.121094 130.582031 386.933594 129.972656 393.671875 C 129.289062 401.484375 126.195312 409.105469 126.945312 416.914062 C 127.355469 421.238281 128.917969 425.328125 129.972656 429.519531 C 131.027344 433.710938 131.550781 438.3125 129.9375 442.308594 C 124.308594 440.113281 118.257812 439.40625 112.3125 440.242188 C 105.78125 433.144531 104.621094 423.246094 104.175781 413.3125 C 103.730469 403.375 104.804688 393.425781 103.640625 383.585938 C 103.296875 380.675781 102.761719 377.835938 102.671875 374.929688 C 102.386719 365.621094 106.601562 356.910156 108.699219 347.863281 C 110.585938 339.71875 110.769531 331.234375 109.226562 323.007812 C 108.199219 317.570312 106.429688 312.292969 105.800781 306.78125 C 104.941406 299.0625 106.394531 291.28125 107.855469 283.652344 C 108.835938 278.507812 109.808594 273.359375 110.921875 268.242188 C 112.113281 262.75 113.535156 257.136719 116.722656 252.640625 C 121.820312 245.441406 130.878906 242.246094 139.34375 242.945312 C 147.8125 243.640625 155.71875 247.734375 162.710938 252.828125 C 168.222656 256.738281 173.300781 261.296875 177.847656 266.417969 Z M 177.847656 266.417969 " fill-opacity="1" fill-rule="nonzero"/><path fill="#fbbebe" d="M 155.101562 136.84375 C 154.714844 137.5 154.449219 138.226562 154.3125 138.984375 C 154.140625 140.476562 154.996094 141.84375 155.683594 143.148438 C 156.5625 144.824219 157.234375 146.609375 157.691406 148.460938 C 158.019531 149.609375 158.117188 150.816406 157.984375 152.007812 C 157.820312 152.902344 157.519531 153.761719 157.09375 154.554688 C 155.773438 157.261719 153.8125 159.765625 151.144531 160.894531 C 149.078125 161.699219 146.828125 161.796875 144.707031 161.171875 C 142.601562 160.539062 140.609375 159.53125 138.816406 158.199219 C 137.304688 157.183594 135.949219 155.933594 134.785156 154.488281 C 133.675781 152.910156 132.742188 151.199219 132.003906 149.394531 C 130.578125 146.226562 129.128906 142.84375 129.390625 139.371094 C 129.40625 139.054688 129.460938 138.746094 129.554688 138.445312 C 129.777344 137.90625 130.089844 137.414062 130.472656 136.992188 C 133.398438 133.308594 134.898438 128.589844 134.667969 123.78125 L 144.65625 126.1875 C 146.859375 126.722656 149.058594 127.253906 151.234375 127.914062 C 153.015625 128.460938 155.757812 129.21875 156.917969 130.90625 C 158.074219 132.59375 155.886719 135.300781 155.101562 136.84375 Z M 155.101562 136.84375 " fill-opacity="1" fill-rule="nonzero"/><path fill="#fbbebe" d="M 149.753906 135.039062 C 159.777344 135.039062 167.90625 126.410156 167.90625 115.765625 C 167.90625 105.121094 159.777344 96.492188 149.753906 96.492188 C 139.726562 96.492188 131.597656 105.121094 131.597656 115.765625 C 131.597656 126.410156 139.726562 135.039062 149.753906 135.039062 Z M 149.753906 135.039062 " fill-opacity="1" fill-rule="nonzero"/><path fill="#f2f2f2" d="M 146.832031 154.648438 C 147.601562 152.863281 149.257812 151.738281 150.773438 150.617188 C 152.289062 149.496094 153.824219 148.0625 154.121094 146.117188 C 154.136719 145.679688 154.238281 145.246094 154.421875 144.851562 C 155.003906 143.921875 156.390625 144.386719 157.21875 145.070312 C 159.234375 146.738281 160.605469 149.101562 161.941406 151.410156 C 163.671875 154.214844 165.152344 157.183594 166.363281 160.28125 C 168.289062 165.675781 168.523438 171.5625 168.734375 177.320312 C 168.929688 182.5625 169.113281 187.882812 167.914062 192.960938 C 167.160156 196.179688 165.855469 199.300781 165.78125 202.613281 C 165.554688 214.644531 161.621094 226.144531 161.347656 238.175781 C 161.324219 241.65625 161.488281 245.132812 161.839844 248.589844 L 162.484375 256.402344 C 152.515625 255.796875 142.574219 254.867188 132.660156 253.613281 C 132.371094 250.019531 131.40625 246.53125 130.523438 243.050781 C 126.902344 228.828125 124.578125 214.269531 123.589844 199.570312 C 123.0625 191.769531 122.519531 183.996094 121.707031 176.222656 C 120.972656 169.15625 119.53125 162.042969 120.394531 154.992188 C 120.847656 151.785156 121.796875 148.679688 123.207031 145.804688 C 123.652344 144.660156 124.417969 143.6875 125.402344 143.015625 C 125.890625 142.765625 126.414062 142.585938 126.949219 142.484375 C 128.503906 142.152344 130.082031 141.953125 131.667969 141.894531 C 132.054688 141.863281 132.445312 141.902344 132.820312 142.011719 C 133.488281 142.367188 134.035156 142.929688 134.390625 143.628906 C 137.441406 148.503906 141.765625 152.332031 146.832031 154.648438 Z M 146.832031 154.648438 " fill-opacity="1" fill-rule="nonzero"/><path fill="#6c63ff" d="M 138.414062 153.105469 C 139.6875 155.042969 142.390625 155.5 143.570312 157.472656 C 143.964844 158.296875 144.265625 159.167969 144.464844 160.070312 C 145.1875 162.507812 146.640625 164.628906 147.523438 167.007812 C 148.800781 170.429688 148.832031 174.210938 148.847656 177.886719 C 148.972656 180.816406 148.761719 183.75 148.21875 186.625 C 147.804688 188.421875 147.132812 190.132812 146.640625 191.90625 C 145.800781 194.925781 145.492188 198.085938 145.722656 201.222656 C 145.722656 201.902344 145.890625 202.566406 146.214844 203.152344 C 146.679688 203.738281 147.285156 204.175781 147.96875 204.417969 C 149.980469 205.359375 152.082031 206.316406 154.277344 206.101562 C 154.726562 206.085938 155.164062 205.929688 155.53125 205.65625 C 155.785156 205.410156 155.996094 205.117188 156.148438 204.789062 L 157.519531 202.328125 C 158.761719 200.082031 160.058594 197.5625 159.578125 194.992188 C 159.226562 193.667969 158.703125 192.398438 158.019531 191.230469 C 157.144531 189.332031 156.398438 187.367188 155.785156 185.355469 C 153.597656 178.679688 151.382812 171.914062 150.890625 164.867188 C 150.601562 162.1875 150.882812 159.46875 151.714844 156.917969 C 152.355469 155.347656 153.167969 153.863281 154.125 152.484375 C 153.910156 152.175781 153.609375 151.945312 153.265625 151.820312 C 152.921875 151.699219 152.550781 151.6875 152.199219 151.796875 C 151.511719 152.019531 150.84375 152.316406 150.203125 152.675781 C 148.1875 153.578125 145.953125 153.25 143.917969 152.632812 C 143.121094 152.382812 141.863281 151.539062 141.039062 151.597656 C 140.757812 151.636719 138.460938 153.191406 138.414062 153.105469 Z M 138.414062 153.105469 " fill-opacity="1" fill-rule="nonzero"/><path fill="#f2f2f2" d="M 154.460938 153.027344 C 154.050781 152.675781 153.414062 152.355469 153.050781 152.761719 C 152.929688 152.941406 152.839844 153.140625 152.789062 153.351562 C 152.433594 154.371094 151.382812 154.875 150.429688 155.265625 C 149.476562 155.660156 148.449219 155.878906 147.875 155.128906 C 147.691406 154.835938 147.601562 154.492188 147.617188 154.140625 C 147.636719 153.792969 147.753906 153.457031 147.964844 153.183594 C 148.382812 152.644531 148.894531 152.191406 149.464844 151.839844 C 152.617188 149.476562 154.765625 145.886719 155.441406 141.851562 C 156.328125 142.597656 156.914062 143.671875 157.082031 144.859375 C 157.308594 146.015625 157.335938 147.210938 157.5625 148.367188 C 157.898438 150.027344 158.644531 151.578125 158.816406 153.257812 C 158.90625 154.152344 158.816406 155.054688 158.816406 155.949219 C 158.847656 156.824219 158.941406 157.699219 159.105469 158.558594 C 157.5 156.753906 156.367188 154.632812 154.460938 153.027344 Z M 154.460938 153.027344 " fill-opacity="1" fill-rule="nonzero"/><path fill="#f2f2f2" d="M 140.585938 148.082031 C 139.902344 147.390625 139.214844 146.738281 138.53125 146.03125 C 135.523438 142.914062 133.25 139.085938 131.898438 134.859375 C 131.023438 135.585938 130.054688 136.546875 130.035156 137.769531 C 130.113281 138.636719 130.429688 139.457031 130.941406 140.136719 C 133.53125 144.46875 135.246094 149.332031 135.964844 154.40625 C 136.335938 153.792969 136.847656 153.289062 137.457031 152.949219 C 138.0625 152.605469 138.742188 152.433594 139.425781 152.449219 C 140.511719 152.449219 145.371094 155.507812 145.722656 154.734375 C 146.234375 153.527344 141.410156 148.90625 140.585938 148.082031 Z M 140.585938 148.082031 " fill-opacity="1" fill-rule="nonzero"/><path fill="#3f3d56" d="M 155.894531 142.289062 C 162.34375 149.105469 170.238281 154.179688 178.917969 157.085938 C 179.78125 157.285156 180.578125 157.71875 181.242188 158.339844 C 181.734375 158.992188 182.066406 159.769531 182.207031 160.59375 C 183.878906 167.539062 184.441406 174.722656 184.996094 181.863281 C 185.144531 183.042969 185.121094 184.242188 184.929688 185.414062 C 184.523438 187.320312 183.25 188.863281 181.996094 190.296875 C 178.058594 194.773438 173.570312 199.453125 172.90625 205.539062 C 172.851562 206.710938 172.722656 207.878906 172.511719 209.03125 C 172.171875 210.386719 171.410156 211.582031 170.945312 212.898438 C 168.652344 219.382812 173.828125 227.238281 170.675781 233.277344 C 172.382812 236.757812 173.554688 240.507812 174.144531 244.382812 C 174.25 245.855469 174.566406 247.296875 175.085938 248.664062 C 176.023438 250.746094 177.957031 252.070312 179.480469 253.757812 C 184.121094 258.8125 184.691406 266.539062 184.964844 273.59375 C 185.132812 277.566406 185.078125 282.128906 182.222656 284.734375 C 180.570312 286.257812 178.3125 286.753906 176.152344 287.132812 C 173.28125 287.640625 170.15625 288.003906 167.613281 286.496094 C 165.789062 285.421875 164.546875 283.535156 163.359375 281.714844 C 161.113281 278.246094 158.855469 274.777344 156.722656 271.21875 C 153.351562 265.609375 150.171875 259.195312 151.144531 252.617188 C 150.871094 259.347656 149.53125 266.132812 146.421875 272 C 143.308594 277.867188 138.296875 282.765625 132.214844 284.699219 C 126.132812 286.636719 119.023438 285.269531 114.492188 280.550781 C 113.011719 278.933594 111.742188 277.117188 110.714844 275.144531 C 108.136719 270.453125 106.253906 265.367188 105.132812 260.070312 C 104.839844 258.695312 104.621094 257.160156 105.273438 255.929688 C 105.582031 255.347656 106.054688 254.886719 106.375 254.3125 C 107.460938 252.355469 106.417969 249.886719 105.367188 247.894531 C 103.769531 248.054688 102.625 246.058594 102.769531 244.355469 C 102.914062 242.652344 103.875 241.175781 104.550781 239.625 C 106.539062 235.054688 106.101562 229.734375 105.140625 224.804688 C 104.179688 219.878906 102.75 214.980469 102.859375 209.949219 C 102.976562 204.628906 99.371094 199.839844 96.621094 195.394531 C 95.085938 192.890625 93.296875 190.558594 91.957031 187.933594 C 89.171875 182.402344 88.527344 175.9375 90.160156 169.910156 C 91.121094 166.816406 92.382812 163.835938 93.917969 161.015625 L 96.179688 156.511719 C 96.601562 155.433594 97.257812 154.480469 98.089844 153.71875 C 98.925781 152.960938 99.914062 152.421875 100.980469 152.144531 L 116.632812 145.59375 C 118.632812 144.867188 120.535156 143.859375 122.28125 142.59375 C 124.195312 141.066406 125.621094 138.957031 127.445312 137.324219 C 127.710938 137.027344 128.027344 136.792969 128.382812 136.628906 C 128.734375 136.464844 129.113281 136.378906 129.5 136.371094 C 130.96875 136.511719 131.488281 138.476562 131.640625 140.011719 C 131.980469 143.445312 134.382812 146.359375 135.195312 149.699219 C 139.613281 168.148438 148.957031 185.167969 151.519531 204.003906 C 154.398438 196.660156 157.28125 189.300781 160.96875 182.386719 C 161.550781 181.394531 162.039062 180.34375 162.429688 179.25 C 162.871094 177.671875 163.035156 176.023438 162.914062 174.378906 C 162.730469 169.640625 161.542969 165.011719 160.371094 160.433594 C 158.851562 154.203125 157.476562 148.460938 155.894531 142.289062 Z M 155.894531 142.289062 " fill-opacity="1" fill-rule="nonzero"/><path fill="#3f3d56" d="M 185.722656 198.667969 C 186.027344 201.769531 186.320312 204.878906 186.863281 207.941406 C 187.492188 211.484375 188.453125 214.949219 189.40625 218.414062 C 189.871094 220.363281 190.539062 222.25 191.394531 224.039062 C 191.703125 224.5625 191.953125 225.121094 192.128906 225.707031 C 192.464844 227.164062 191.695312 228.621094 191.367188 230.074219 C 190.378906 234.441406 193.339844 239.296875 191.476562 243.320312 C 190.914062 244.546875 189.933594 245.558594 189.5625 246.867188 C 189.132812 248.375 189.5625 249.980469 189.789062 251.539062 C 190.375 255.90625 188.96875 260.347656 187.582031 264.546875 L 185.222656 271.636719 C 183.070312 267.386719 180.898438 263.089844 177.921875 259.445312 C 176.859375 258.132812 175.703125 256.917969 174.722656 255.535156 C 173.257812 253.363281 172.105469 250.972656 171.292969 248.445312 C 169.199219 242.441406 168.003906 236.125 167.75 229.726562 C 167.578125 227.90625 167.777344 226.070312 168.332031 224.339844 C 168.785156 223.339844 169.292969 222.367188 169.851562 221.429688 C 171.691406 217.914062 172.066406 213.75 172.035156 209.730469 C 172 205.714844 171.59375 201.683594 172.035156 197.6875 C 172.390625 194.347656 173.320312 191.109375 174.777344 188.128906 C 175.632812 186.199219 176.910156 184.511719 178.5 183.203125 C 179.683594 182.257812 181.128906 181.761719 182.613281 181.78125 C 184.855469 181.921875 184.339844 183.964844 184.53125 185.9375 Z M 185.722656 198.667969 " fill-opacity="1" fill-rule="nonzero"/><path fill="#3f3d56" d="M 84.882812 188.761719 C 83.484375 193.128906 82.222656 197.535156 81.097656 201.980469 C 80 206.347656 79.023438 210.738281 78.15625 215.152344 C 77.714844 217.09375 77.464844 219.082031 77.417969 221.078125 C 77.503906 223.402344 77.878906 225.707031 78.535156 227.929688 C 82.949219 244.820312 91 260.40625 100.0625 275.054688 C 102.652344 271.628906 105.726562 268.644531 109.179688 266.21875 C 109.460938 266.042969 109.699219 265.792969 109.867188 265.492188 C 109.953125 265.210938 109.976562 264.910156 109.941406 264.613281 C 109.902344 264.320312 109.800781 264.039062 109.644531 263.789062 C 107.144531 258.34375 103.179688 253.546875 101.933594 247.628906 C 101.414062 245.171875 101.390625 242.609375 100.800781 240.164062 C 100.042969 236.996094 98.339844 234.101562 97.949219 230.855469 C 97.53125 227.316406 98.636719 223.460938 97.074219 220.320312 C 100.261719 219.003906 102.105469 215.519531 103.457031 212.175781 C 104.898438 208.757812 105.929688 205.164062 106.527344 201.46875 C 107.464844 194.394531 106.160156 187.183594 102.816406 180.980469 C 101.183594 177.886719 99.089844 175.09375 96.613281 172.714844 C 95.796875 171.933594 93.871094 169.699219 92.683594 169.722656 C 91.101562 169.757812 90.59375 172.480469 90.140625 173.703125 C 88.3125 178.695312 86.5 183.695312 84.882812 188.761719 Z M 84.882812 188.761719 " fill-opacity="1" fill-rule="nonzero"/><path fill="#fbbebe" d="M 113.28125 270.230469 C 113.484375 270.390625 113.71875 270.609375 113.664062 270.871094 C 113.609375 271.132812 113.410156 271.199219 113.230469 271.308594 C 112.304688 272.007812 111.613281 273 111.257812 274.144531 C 110.117188 276.871094 109.125 279.664062 108.28125 282.507812 C 106.746094 280.070312 104.941406 277.832031 102.90625 275.847656 C 101.34375 274.320312 99.59375 272.871094 98.757812 270.804688 C 98.757812 270.746094 102.351562 267.929688 102.679688 267.625 C 103.6875 266.671875 104.957031 264.027344 106 263.445312 C 107.179688 262.792969 108.300781 265.363281 109.199219 266.394531 C 110.4375 267.816406 111.800781 269.101562 113.28125 270.230469 Z M 113.28125 270.230469 " fill-opacity="1" fill-rule="nonzero"/><path fill="#192534" d="M 169.03125 112.753906 C 168.984375 111.800781 168.867188 110.746094 168.179688 110.125 C 167.578125 109.683594 166.855469 109.472656 166.125 109.523438 C 162.128906 109.382812 157.992188 110.097656 154.222656 108.671875 C 151.742188 107.730469 149.621094 105.925781 147.203125 104.804688 C 144.78125 103.683594 141.683594 103.386719 139.730469 105.269531 C 138.25 106.726562 137.84375 108.960938 137.328125 111.019531 C 136.199219 115.566406 134.183594 119.8125 131.414062 123.480469 C 129.554688 122.871094 128.226562 121.109375 127.367188 119.261719 C 124.453125 112.957031 125.886719 105.429688 127.957031 98.75 C 128.644531 96.507812 129.40625 94.289062 130.164062 92.074219 L 131.839844 87.183594 C 134.035156 86.957031 136.074219 85.878906 137.570312 84.15625 L 138.289062 86.011719 C 140.148438 85.941406 141.941406 85.269531 143.433594 84.082031 C 144.007812 85.234375 145.488281 85.539062 146.6875 85.167969 C 147.886719 84.796875 148.921875 84.082031 150.117188 83.710938 C 153.304688 82.621094 156.703125 84.300781 160.050781 84.492188 C 161.464844 84.453125 162.882812 84.5 164.292969 84.621094 C 168.242188 85.300781 171.03125 89.242188 172.238281 93.289062 C 173.042969 95.984375 173.707031 99.296875 176.210938 100.25 C 176.265625 101.269531 174.5625 101.464844 174.421875 102.433594 C 174.402344 102.753906 174.472656 103.078125 174.625 103.355469 L 176.921875 108.589844 C 175.824219 108.882812 174.667969 108.820312 173.601562 108.414062 C 172.566406 111 169.132812 114.726562 169.03125 112.753906 Z M 169.03125 112.753906 " fill-opacity="1" fill-rule="nonzero"/><path fill="#fbbebe" d="M 285.414062 124.144531 C 286.578125 128.136719 287.496094 132.203125 288.15625 136.320312 C 288.652344 139.40625 288.9375 142.835938 287.273438 145.410156 C 293.621094 135.273438 300.25 124.828125 309.894531 118.285156 C 307.933594 116.023438 306.4375 113.351562 305.511719 110.433594 C 304.582031 107.519531 304.246094 104.433594 304.515625 101.371094 C 304.570312 100.757812 296.597656 103.953125 295.984375 104.316406 C 293.1875 105.96875 290.625 108.023438 287.898438 109.789062 C 286.484375 110.699219 280.601562 112.855469 280.546875 114.160156 C 280.546875 114.996094 282.886719 117.558594 283.324219 118.4375 C 284.183594 120.269531 284.882812 122.179688 285.414062 124.144531 Z M 285.414062 124.144531 " fill-opacity="1" fill-rule="nonzero"/><g clip-path="url(#id2)"><path fill="#3f3d56" d="M 327.199219 340.300781 C 324.457031 357.207031 326.246094 374.582031 329.332031 391.417969 C 329.902344 394.769531 330.648438 398.082031 331.574219 401.34375 C 332.679688 405.058594 334.167969 408.625 335.203125 412.359375 C 337.832031 421.820312 337.464844 431.9375 337.074219 441.8125 L 335.277344 486.757812 C 335.125 490.527344 334.988281 494.386719 336.058594 497.980469 C 336.492188 499.4375 337.019531 501.257812 335.929688 502.238281 C 335.5 502.566406 335.003906 502.769531 334.480469 502.828125 C 329.574219 503.789062 324.507812 502.980469 320.085938 500.535156 L 319.597656 455.132812 C 319.445312 441.136719 319.289062 427.082031 317.261719 413.261719 C 315.648438 402.269531 312.851562 391.425781 312.667969 380.304688 C 312.472656 368.65625 315.164062 357.164062 317.90625 345.875 C 318.492188 343.460938 320.644531 341.691406 322.414062 340.050781 C 323.03125 339.40625 323.785156 338.921875 324.609375 338.640625 C 325.433594 338.402344 326.695312 339.566406 327.199219 340.300781 Z M 327.199219 340.300781 " fill-opacity="1" fill-rule="nonzero"/><path fill="#000000" d="M 327.199219 340.300781 C 324.457031 357.207031 326.246094 374.582031 329.332031 391.417969 C 329.902344 394.769531 330.648438 398.082031 331.574219 401.34375 C 332.679688 405.058594 334.167969 408.625 335.203125 412.359375 C 337.832031 421.820312 337.464844 431.9375 337.074219 441.8125 L 335.277344 486.757812 C 335.125 490.527344 334.988281 494.386719 336.058594 497.980469 C 336.492188 499.4375 337.019531 501.257812 335.929688 502.238281 C 335.5 502.566406 335.003906 502.769531 334.480469 502.828125 C 329.574219 503.789062 324.507812 502.980469 320.085938 500.535156 L 319.597656 455.132812 C 319.445312 441.136719 319.289062 427.082031 317.261719 413.261719 C 315.648438 402.269531 312.851562 391.425781 312.667969 380.304688 C 312.472656 368.65625 315.164062 357.164062 317.90625 345.875 C 318.492188 343.460938 320.644531 341.691406 322.414062 340.050781 C 323.03125 339.40625 323.785156 338.921875 324.609375 338.640625 C 325.433594 338.402344 326.695312 339.566406 327.199219 340.300781 Z M 327.199219 340.300781 " fill-opacity="0.098" fill-rule="nonzero"/></g><g clip-path="url(#id3)"><path fill="#3f3d56" d="M 275.71875 287.457031 C 274.707031 291.890625 276.859375 296.484375 276.617188 301.039062 C 276.480469 303.796875 275.460938 306.550781 275.933594 309.257812 C 276.40625 311.964844 278.230469 314.003906 279.203125 316.484375 C 279.914062 318.558594 280.289062 320.742188 280.3125 322.949219 C 280.59375 328.394531 280.367188 333.867188 280.175781 339.289062 C 279.855469 348.386719 279.613281 357.535156 280.746094 366.554688 C 281.730469 374.367188 283.730469 381.996094 286.691406 389.226562 C 287.585938 391.191406 288.328125 393.234375 288.902344 395.332031 C 289.28125 397.289062 289.535156 399.265625 289.65625 401.257812 C 290.308594 407.734375 291.945312 414.050781 294.503906 419.96875 C 296.253906 424.023438 299.304688 427.25 300.269531 431.550781 C 301.1875 435.671875 300.574219 440.015625 301.238281 444.1875 C 301.722656 447.28125 302.910156 450.207031 303.570312 453.261719 C 304.425781 457.214844 304.40625 461.3125 304.835938 465.34375 C 306.070312 476.988281 311.054688 488.636719 308.082031 499.933594 C 307.484375 502.203125 306.558594 504.511719 306.976562 506.824219 C 307.179688 507.960938 307.703125 509.082031 307.46875 510.210938 C 307.277344 511.171875 306.578125 511.914062 306.222656 512.824219 C 305.535156 514.527344 306.261719 516.550781 307.484375 517.867188 C 308.785156 519.09375 310.296875 520.042969 311.9375 520.660156 C 316.992188 522.953125 322.222656 525.28125 327.707031 525.230469 C 328.375 525.269531 329.039062 525.140625 329.648438 524.855469 C 330.636719 524.308594 331.121094 523.121094 331.539062 522.03125 L 334.351562 514.648438 C 334.695312 513.753906 335.035156 512.707031 334.5625 511.875 C 334.234375 511.421875 333.835938 511.027344 333.382812 510.710938 C 331.117188 508.679688 331.628906 504.890625 332.234375 501.839844 C 333.773438 494.003906 334.628906 486.039062 334.78125 478.039062 C 335.085938 462.085938 332.609375 446.222656 330.140625 430.480469 C 329.285156 425.015625 328.421875 419.511719 326.714844 414.273438 C 325.007812 409.03125 322.492188 403.988281 322.902344 398.542969 C 323.339844 392.660156 321.902344 386.496094 322.902344 380.695312 C 323.902344 374.894531 325.488281 369.21875 326.507812 363.425781 C 327.832031 355.90625 328.160156 348.242188 328.566406 340.613281 C 328.738281 337.5 328.957031 334.28125 330.328125 331.515625 C 331.128906 329.898438 332.292969 328.515625 333.191406 326.953125 C 335.507812 322.882812 335.878906 317.839844 338.09375 313.703125 C 339.144531 311.746094 340.589844 310.023438 341.359375 307.925781 C 341.898438 306.273438 342.179688 304.535156 342.195312 302.785156 C 342.410156 298.394531 342.183594 293.988281 341.507812 289.648438 C 329.839844 283.34375 316.894531 280.15625 303.800781 280.363281 C 298.789062 280.449219 293.722656 280.988281 289.019531 282.828125 C 284.535156 284.597656 280.449219 287.082031 275.71875 287.457031 Z M 275.71875 287.457031 " fill-opacity="1" fill-rule="nonzero"/></g><path fill="#fbbebe" d="M 290.496094 121.304688 C 304.175781 121.304688 315.265625 109.53125 315.265625 95.007812 C 315.265625 80.484375 304.175781 68.710938 290.496094 68.710938 C 276.816406 68.710938 265.726562 80.484375 265.726562 95.007812 C 265.726562 109.53125 276.816406 121.304688 290.496094 121.304688 Z M 290.496094 121.304688 " fill-opacity="1" fill-rule="nonzero"/><path fill="#192534" d="M 271.386719 96.550781 C 273.761719 95.140625 273.761719 91.070312 276.1875 89.71875 C 278.613281 88.363281 281.371094 90.714844 282.925781 93.085938 C 285.195312 96.5625 286.769531 100.492188 287.554688 104.636719 C 287.773438 105.816406 287.980469 107.105469 288.816406 107.925781 C 289.652344 108.75 290.75 108.851562 291.816406 108.96875 C 294.949219 109.296875 298.085938 109.597656 301.222656 109.871094 C 304.722656 110.167969 308.410156 110.410156 311.582031 108.816406 C 312.835938 108.222656 313.910156 107.273438 314.695312 106.078125 C 315.324219 104.929688 315.773438 103.683594 316.027344 102.382812 C 317.664062 95.765625 319.316406 89.070312 319.453125 82.226562 C 319.507812 79.402344 319.273438 76.476562 317.992188 74.003906 C 317.246094 72.546875 316.148438 71.28125 315.839844 69.679688 C 315.53125 68.078125 316.527344 66.039062 318.089844 66.214844 C 316.675781 66.277344 315.269531 65.992188 313.976562 65.386719 C 312.734375 64.65625 311.816406 63.09375 312.253906 61.664062 C 308.773438 62.140625 306.234375 58.484375 303.519531 56.121094 C 303.078125 55.65625 302.484375 55.394531 301.863281 55.390625 C 301.386719 55.519531 300.925781 55.707031 300.492188 55.953125 C 299.121094 56.460938 297.6875 55.492188 296.28125 55.070312 C 292.511719 53.949219 287.71875 56.65625 284.921875 53.746094 C 285.1875 55.601562 283.042969 56.847656 281.273438 56.8125 C 279.503906 56.773438 277.679688 56.082031 276.007812 56.710938 C 276.25 57.179688 276.394531 57.699219 276.421875 58.234375 C 276.453125 58.769531 276.371094 59.308594 276.183594 59.804688 C 275.996094 60.304688 275.707031 60.75 275.339844 61.117188 C 274.96875 61.480469 274.527344 61.757812 274.046875 61.921875 L 274.878906 63.84375 C 274.023438 64.023438 273.230469 64.453125 272.597656 65.085938 C 271.960938 65.71875 271.503906 66.527344 271.277344 67.421875 C 270.367188 71.246094 270.59375 76.675781 270.8125 80.605469 C 270.921875 82.328125 272.503906 95.902344 271.386719 96.550781 Z M 271.386719 96.550781 " fill-opacity="1" fill-rule="nonzero"/><path fill="#6c63ff" d="M 292.523438 128.902344 C 280.082031 143.761719 276.914062 164.671875 274.261719 184.359375 L 270.351562 213.429688 C 269.335938 220.96875 268.296875 228.511719 267.410156 236.074219 C 266.792969 241.246094 266.21875 246.503906 266.890625 251.671875 C 267.417969 255.746094 268.699219 259.675781 269.769531 263.601562 C 272.550781 273.890625 273.9375 284.546875 273.882812 295.253906 C 274.710938 292.664062 277.585938 291.613281 280.109375 291.03125 C 301.277344 286.15625 323.363281 288.660156 343.085938 298.171875 C 346.546875 287.875 345.898438 276.605469 346.863281 265.71875 C 348.234375 250.191406 352.957031 235.148438 354.355469 219.652344 C 354.871094 213.878906 354.933594 208.078125 354.988281 202.277344 C 355.027344 198.019531 355.070312 193.71875 354.234375 189.546875 C 353.300781 184.933594 351.332031 180.632812 349.296875 176.449219 C 343.667969 164.8125 337.414062 153.53125 330.566406 142.660156 C 327.121094 137.1875 323.527344 131.824219 319.78125 126.566406 C 317.886719 123.902344 315.949219 121.269531 313.976562 118.664062 C 312.0625 116.136719 311.234375 113.945312 308.195312 115.460938 C 302.457031 118.3125 296.699219 123.917969 292.523438 128.902344 Z M 292.523438 128.902344 " fill-opacity="1" fill-rule="nonzero"/><path fill="#fbbebe" d="M 299.652344 252.550781 C 296.617188 252.667969 293.578125 252.566406 290.554688 252.246094 C 288.3125 252.011719 286.023438 251.664062 283.835938 252.246094 C 282.886719 252.5 281.996094 252.964844 281.226562 253.605469 C 280.941406 253.875 280.734375 254.230469 280.636719 254.621094 C 280.535156 255.011719 280.542969 255.429688 280.664062 255.8125 C 280.78125 256.199219 281.003906 256.542969 281.300781 256.796875 C 281.601562 257.050781 281.960938 257.207031 282.34375 257.246094 L 284.6875 257.464844 C 286.175781 257.601562 287.726562 257.761719 288.882812 258.921875 C 289.359375 259.375 289.660156 260 289.734375 260.675781 C 289.878906 262.371094 288.492188 263.292969 287.253906 264 C 285.488281 264.878906 283.855469 266.03125 282.410156 267.421875 C 281.28125 268.582031 280.570312 270.128906 280.402344 271.789062 C 280.398438 271.9375 280.429688 272.082031 280.496094 272.214844 C 280.558594 272.34375 280.65625 272.457031 280.773438 272.535156 C 280.890625 272.613281 281.027344 272.65625 281.167969 272.664062 C 281.308594 272.667969 281.445312 272.636719 281.566406 272.566406 C 284.3125 271.109375 286.101562 266.796875 289.109375 267.515625 C 286.371094 268.4375 284.027344 270.351562 282.488281 272.921875 C 282.105469 273.539062 281.933594 274.269531 281.996094 275.003906 C 282.058594 275.734375 282.347656 276.421875 282.824219 276.957031 C 283.300781 277.488281 283.933594 277.835938 284.617188 277.941406 C 285.304688 278.046875 286.003906 277.902344 286.601562 277.53125 C 287.046875 277.253906 287.476562 276.949219 287.890625 276.621094 C 289.929688 274.867188 291.753906 272.855469 293.324219 270.625 C 291.132812 275.535156 288.910156 281.285156 291.433594 286.171875 C 291.558594 286.4375 291.757812 286.664062 292 286.816406 C 292.242188 286.96875 292.523438 287.042969 292.804688 287.03125 C 293.601562 286.941406 293.832031 286.148438 293.964844 285.449219 C 294.375 283.199219 294.476562 280.828125 295.519531 278.828125 C 297.933594 274.183594 303.882812 273.730469 308.414062 271.46875 C 313.851562 268.789062 317.574219 263.023438 319.078125 256.867188 C 319.601562 255.070312 319.695312 253.164062 319.34375 251.320312 C 318.335938 247.179688 313.523438 246.226562 310.429688 248.226562 C 306.640625 250.78125 304.4375 252.390625 299.652344 252.550781 Z M 299.652344 252.550781 " fill-opacity="1" fill-rule="nonzero"/><path fill="#000000" d="M 294.839844 171.082031 C 299.640625 178.949219 307.96875 183.382812 315.113281 188.90625 C 316.855469 190.113281 318.375 191.648438 319.597656 193.433594 C 321.402344 196.390625 321.65625 200.144531 321.285156 203.625 C 320.816406 208.21875 319.425781 212.636719 318.046875 217.015625 L 315.050781 226.515625 C 313.152344 232.542969 311.191406 238.691406 307.578125 243.757812 C 306.652344 245.046875 305.578125 246.421875 305.617188 248.039062 C 305.699219 248.972656 306 249.867188 306.496094 250.644531 C 307.652344 252.648438 309.175781 254.382812 310.976562 255.75 C 312.777344 257.113281 314.820312 258.082031 316.976562 258.59375 C 318.273438 258.941406 319.628906 258.941406 320.921875 258.59375 C 322.773438 258.011719 324.164062 256.410156 325.453125 254.894531 C 331.621094 247.667969 337.792969 240.335938 342.25 231.859375 C 346.601562 223.582031 349.207031 214.390625 351.605469 205.285156 C 352.59375 201.933594 353.285156 198.488281 353.664062 195 C 354.171875 188.449219 352.554688 181.898438 349.90625 175.980469 C 347.261719 170.0625 343.621094 164.707031 339.871094 159.503906 C 336.332031 154.390625 332.398438 149.601562 328.113281 145.179688 C 320.652344 137.777344 311.527344 133.425781 301.546875 137.625 C 294.5 140.59375 291.859375 146.789062 291.226562 154.722656 C 290.695312 160.449219 291.964844 166.203125 294.839844 171.082031 Z M 294.839844 171.082031 " fill-opacity="0.098" fill-rule="nonzero"/><path fill="#6c63ff" d="M 297.335938 169.089844 C 302.136719 176.957031 310.472656 181.390625 317.609375 186.914062 C 319.347656 188.128906 320.859375 189.675781 322.074219 191.46875 C 323.875 194.425781 324.128906 198.171875 323.757812 201.660156 C 323.285156 206.253906 321.902344 210.671875 320.515625 215.050781 L 317.519531 224.515625 C 315.621094 230.539062 313.660156 236.683594 310.046875 241.757812 C 309.128906 243.046875 308.050781 244.414062 308.09375 246.035156 C 308.167969 246.96875 308.472656 247.863281 308.972656 248.636719 C 310.125 250.640625 311.648438 252.375 313.449219 253.742188 C 315.246094 255.109375 317.289062 256.078125 319.445312 256.589844 C 320.742188 256.941406 322.101562 256.941406 323.394531 256.589844 C 325.246094 256.015625 326.632812 254.40625 327.925781 252.902344 C 334.097656 245.664062 340.269531 238.34375 344.722656 229.863281 C 349.078125 221.589844 351.683594 212.394531 354.082031 203.28125 C 355.074219 199.933594 355.761719 196.492188 356.140625 193.007812 C 356.644531 186.457031 355.027344 179.90625 352.390625 173.980469 C 349.75 168.054688 346.101562 162.707031 342.351562 157.5 C 338.800781 152.417969 334.859375 147.652344 330.566406 143.257812 C 323.113281 135.863281 313.988281 131.503906 304.007812 135.710938 C 296.953125 138.679688 294.320312 144.867188 293.683594 152.808594 C 293.179688 158.511719 294.464844 164.238281 297.335938 169.089844 Z M 297.335938 169.089844 " fill-opacity="1" fill-rule="nonzero"/><path fill="#3f3d56" d="M 448.929688 430.160156 C 448.9375 432.058594 448.753906 433.953125 448.382812 435.808594 C 448.316406 436.15625 448.238281 436.535156 448.164062 436.835938 C 446.21875 445.125 440.726562 451.1875 434.171875 451.574219 C 433.953125 451.574219 433.730469 451.574219 433.484375 451.574219 C 426.554688 451.574219 420.691406 445.226562 418.757812 436.484375 C 418.703125 436.253906 418.65625 436.019531 418.609375 435.757812 C 418.238281 433.902344 418.054688 432.007812 418.058594 430.109375 C 418.058594 418.265625 424.964844 408.675781 433.484375 408.675781 C 442.007812 408.675781 448.929688 418.339844 448.929688 430.160156 Z M 448.929688 430.160156 " fill-opacity="1" fill-rule="nonzero"/><path fill="#000000" d="M 448.933594 430.160156 C 448.9375 432.058594 448.753906 433.953125 448.382812 435.808594 C 448.316406 436.15625 448.238281 436.535156 448.164062 436.835938 C 447.929688 436.835938 447.703125 436.835938 447.476562 436.835938 C 445.78125 436.738281 444.09375 436.496094 442.433594 436.105469 C 440.960938 436.589844 439.457031 436.957031 437.933594 437.199219 C 436.769531 437.386719 435.589844 437.503906 434.410156 437.546875 L 433.21875 437.546875 C 431.804688 437.546875 430.394531 437.449219 428.996094 437.25 C 426.730469 436.929688 424.507812 436.34375 422.367188 435.503906 C 421.191406 435.917969 419.996094 436.257812 418.785156 436.523438 C 418.734375 436.289062 418.683594 436.054688 418.636719 435.792969 C 418.265625 433.9375 418.082031 432.042969 418.085938 430.144531 C 418.085938 418.304688 424.992188 408.710938 433.515625 408.710938 C 442.035156 408.710938 448.933594 418.339844 448.933594 430.160156 Z M 448.933594 430.160156 " fill-opacity="0.098" fill-rule="nonzero"/><path fill="#6c63ff" d="M 481.839844 390.230469 C 481.847656 385.019531 480.695312 379.878906 478.480469 375.230469 L 460.339844 381.21875 L 476.265625 371.277344 C 473.59375 367.183594 470.089844 363.777344 466.011719 361.308594 C 461.9375 358.84375 457.390625 357.378906 452.710938 357.027344 C 451.964844 355.828125 451.148438 354.679688 450.261719 353.589844 L 424.210938 362.203125 L 445.578125 348.859375 C 441.492188 345.527344 436.695312 343.320312 431.609375 342.425781 C 426.527344 341.535156 421.3125 341.984375 416.433594 343.738281 C 411.550781 345.496094 407.15625 348.5 403.628906 352.488281 C 400.101562 356.480469 397.558594 361.328125 396.21875 366.613281 L 418.53125 393.882812 L 394.324219 375.296875 C 388.195312 379.914062 383.828125 386.714844 382.023438 394.464844 C 380.222656 402.210938 381.097656 410.390625 384.5 417.507812 C 387.898438 424.628906 393.597656 430.210938 400.550781 433.246094 C 407.503906 436.277344 415.253906 436.558594 422.386719 434.03125 C 428.835938 436.550781 435.886719 436.757812 442.460938 434.621094 C 447.042969 435.691406 451.792969 435.660156 456.359375 434.523438 C 460.929688 433.390625 465.199219 431.179688 468.855469 428.0625 C 472.515625 424.941406 475.46875 420.992188 477.5 416.503906 C 479.53125 412.015625 480.585938 407.097656 480.59375 402.117188 C 480.59375 401.390625 480.59375 400.660156 480.523438 399.933594 C 481.410156 396.785156 481.855469 393.515625 481.839844 390.230469 Z M 481.839844 390.230469 " fill-opacity="1" fill-rule="nonzero"/><path fill="#000000" d="M 481.296875 396.402344 C 471.71875 394.476562 461.894531 394.34375 452.269531 396.011719 C 441.378906 397.925781 430.242188 402.132812 419.589844 399.058594 C 413.335938 397.253906 407.933594 393.078125 401.824219 390.753906 C 395.933594 388.570312 389.582031 388.167969 383.488281 389.589844 C 381.164062 395.492188 380.488281 401.976562 381.546875 408.273438 C 382.601562 414.570312 385.34375 420.410156 389.441406 425.097656 C 393.539062 429.785156 398.824219 433.117188 404.660156 434.703125 C 410.496094 436.289062 416.636719 436.054688 422.351562 434.03125 C 428.804688 436.550781 435.851562 436.757812 442.425781 434.621094 C 447.007812 435.691406 451.757812 435.660156 456.324219 434.523438 C 460.894531 433.390625 465.164062 431.179688 468.824219 428.0625 C 472.480469 424.941406 475.433594 420.992188 477.464844 416.503906 C 479.496094 412.015625 480.550781 407.097656 480.558594 402.117188 C 480.558594 401.390625 480.558594 400.660156 480.488281 399.933594 C 480.820312 398.773438 481.089844 397.59375 481.296875 396.402344 Z M 481.296875 396.402344 " fill-opacity="0.098" fill-rule="nonzero"/></svg>