<svg width="1251" height="882" viewBox="0 0 1251 882" fill="none" xmlns="http://www.w3.org/2000/svg">
<path opacity="0.1" d="M474.682 399.279H342.184C337.491 399.279 333.688 403.14 333.688 407.902V436.52C333.688 441.283 337.491 445.143 342.184 445.143H474.682C479.375 445.143 483.179 441.283 483.179 436.52V407.902C483.179 403.14 479.375 399.279 474.682 399.279Z" fill="#6C63FF"/>
<path opacity="0.1" d="M631.137 445.143H498.639C493.946 445.143 490.143 449.004 490.143 453.766V482.384C490.143 487.147 493.946 491.007 498.639 491.007H631.137C635.83 491.007 639.634 487.147 639.634 482.384V453.766C639.634 449.004 635.83 445.143 631.137 445.143Z" fill="#6C63FF"/>
<path opacity="0.1" d="M474.682 330.471H342.184C337.491 330.471 333.688 334.332 333.688 339.094V367.713C333.688 372.475 337.491 376.335 342.184 376.335H474.682C479.375 376.335 483.179 372.475 483.179 367.713V339.094C483.179 334.332 479.375 330.471 474.682 330.471Z" fill="#6C63FF"/>
<path opacity="0.1" d="M631.137 376.347H498.639C493.946 376.347 490.143 380.208 490.143 384.97V413.588C490.143 418.351 493.946 422.211 498.639 422.211H631.137C635.83 422.211 639.634 418.351 639.634 413.588V384.97C639.634 380.208 635.83 376.347 631.137 376.347Z" fill="#6C63FF"/>
<path opacity="0.1" d="M474.682 238.732H342.184C337.491 238.732 333.688 242.592 333.688 247.355V275.973C333.688 280.735 337.491 284.596 342.184 284.596H474.682C479.375 284.596 483.179 280.735 483.179 275.973V247.355C483.179 242.592 479.375 238.732 474.682 238.732Z" fill="#6C63FF"/>
<path opacity="0.1" d="M631.137 284.607H498.639C493.946 284.607 490.143 288.468 490.143 293.23V321.849C490.143 326.611 493.946 330.471 498.639 330.471H631.137C635.83 330.471 639.634 326.611 639.634 321.849V293.23C639.634 288.468 635.83 284.607 631.137 284.607Z" fill="#6C63FF"/>
<path opacity="0.1" d="M474.682 169.936H342.184C337.491 169.936 333.688 173.796 333.688 178.559V207.177C333.688 211.939 337.491 215.8 342.184 215.8H474.682C479.375 215.8 483.179 211.939 483.179 207.177V178.559C483.179 173.796 479.375 169.936 474.682 169.936Z" fill="#6C63FF"/>
<path d="M274.442 372.529L221.841 699.797L459.691 674.266L449.399 646.413L263.579 662.08L307.032 371.949L274.442 372.529Z" fill="#3F3D56"/>
<path d="M212.693 1.16053L532.876 0L625.5 711.403L304.174 755.503L212.693 1.16053Z" fill="#3F3D56"/>
<path d="M247.57 28.4329H506.003L596.34 689.933L329.903 727.07L247.57 28.4329Z" fill="white"/>
<path d="M491.298 660.177C492.921 663.334 494.134 666.746 496.249 669.589C502.424 677.968 514.145 679.279 522.939 684.745C523.379 684.972 523.741 685.328 523.979 685.767C524.379 686.73 523.487 687.739 522.63 688.343C515.963 693.089 507.215 693.194 499.062 693.136C496.322 693.235 493.581 692.97 490.909 692.347C486.598 691.186 482.904 688.134 478.65 686.892C476.445 686.333 474.187 686.01 471.915 685.929L462.984 685.314C460.607 685.279 458.252 684.836 456.02 684.003C454.908 683.571 453.922 682.86 453.154 681.937C452.387 681.013 451.862 679.907 451.629 678.722C451.378 676.796 452.19 674.927 452.67 673.047C453.813 668.591 453.459 663.206 456.878 660.165C458.287 659.071 459.902 658.281 461.624 657.844C467.839 655.719 474.183 654.005 480.617 652.715C485.912 651.659 488.953 655.604 491.298 660.177Z" fill="#3F3D56"/>
<path d="M390.28 685.279C390.509 687.751 390.577 690.583 388.816 692.312C387.72 693.236 386.395 693.838 384.985 694.053C376.535 696.049 367.112 696.188 359.76 691.523C358.995 691.079 358.319 690.493 357.77 689.794C357.157 688.842 356.809 687.739 356.764 686.602C356.501 683.318 357.496 680.08 358.399 676.912C360.537 669.394 362.16 661.736 363.259 653.991C363.35 653.353 384.837 657.473 386.266 659.632C388.062 662.301 388.073 668.707 388.553 671.887C389.277 676.328 389.853 680.792 390.28 685.279Z" fill="#3F3D56"/>
<path d="M470.257 383.287L475.974 437.24C477.118 448.265 478.319 459.348 477.53 470.408C476.615 483.173 473.093 495.939 474.579 508.589C475.163 513.51 476.489 518.337 476.683 523.293C476.72 526.588 476.555 529.883 476.192 533.157C473.607 565.896 481.784 598.379 486.358 630.885C487.093 634.895 487.255 638.991 486.838 643.048C486.243 647.167 485.054 652.576 488.667 654.525L454.728 667.012C450.394 661.5 453.264 652.924 452.441 645.926C451.686 639.624 448.279 634.007 446.46 627.938C444.814 622.483 444.471 616.738 443.933 611.075C440.972 580.24 431.881 550.205 429.754 519.301C429.685 516.316 429.302 513.348 428.61 510.446C427.467 506.605 425.18 503.251 423.51 499.641C420.949 494.222 419.691 488.28 418.456 482.408L411.195 447.882C403.853 458.977 404.151 473.413 402.698 486.713C400.663 505.282 396.112 523.537 392.407 541.873C391.546 545.818 390.901 549.809 390.474 553.826C389.514 564.584 391.423 575.447 390.406 586.193C389.262 598.646 384.105 610.797 385.351 623.249C386.037 630.143 388.645 636.665 390.406 643.349C392.167 650.034 393.036 657.368 390.348 663.74C380.956 660.24 370.867 659.109 360.949 660.444C350.051 649.129 348.119 633.346 347.375 617.504C346.632 601.663 348.427 585.799 346.483 570.109C345.912 565.466 345.02 560.94 344.871 556.31C344.391 541.467 351.423 527.575 354.923 513.15C358.071 500.164 358.372 486.635 355.803 473.518C354.088 464.849 351.137 456.435 350.085 447.65C348.656 435.337 351.08 422.931 353.516 410.768C355.151 402.563 356.775 394.358 358.627 386.2C360.617 377.438 362.984 368.49 368.302 361.318C376.809 349.841 391.915 344.746 406.037 345.86C420.16 346.974 433.344 353.496 445.008 361.62C454.201 367.855 462.671 375.123 470.257 383.287Z" fill="#192534"/>
<path d="M432.316 176.69C431.674 177.736 431.228 178.892 431.001 180.102C430.715 182.481 432.144 184.663 433.288 186.74C434.753 189.409 435.878 192.256 436.638 195.212C437.182 197.042 437.35 198.966 437.13 200.864C436.851 202.29 436.349 203.661 435.643 204.926C433.436 209.243 430.166 213.235 425.717 215.034C422.273 216.321 418.516 216.476 414.98 215.475C411.468 214.466 408.147 212.865 405.157 210.74C402.637 209.119 400.371 207.124 398.433 204.821C396.584 202.303 395.026 199.577 393.791 196.698C391.412 191.649 388.999 186.253 389.434 180.717C389.457 180.215 389.549 179.719 389.708 179.243C390.08 178.384 390.599 177.598 391.241 176.922C396.119 171.055 398.621 163.526 398.239 155.859L414.9 159.7C418.571 160.547 422.241 161.394 425.866 162.45C428.839 163.321 433.413 164.528 435.346 167.22C437.278 169.913 433.631 174.23 432.316 176.69Z" fill="#FBBEBE"/>
<path d="M423.396 173.812C440.119 173.812 453.676 160.053 453.676 143.081C453.676 126.109 440.119 112.351 423.396 112.351C406.673 112.351 393.116 126.109 393.116 143.081C393.116 160.053 406.673 173.812 423.396 173.812Z" fill="#FBBEBE"/>
<path d="M418.525 205.077C419.805 202.233 422.573 200.435 425.1 198.647C427.627 196.86 430.188 194.574 430.68 191.475C430.71 190.774 430.882 190.087 431.183 189.456C432.155 187.97 434.465 188.713 435.849 189.804C439.211 192.462 441.498 196.233 443.728 199.912C446.612 204.386 449.081 209.122 451.103 214.059C454.316 222.659 454.705 232.047 455.06 241.227C455.38 249.583 455.689 258.066 453.688 266.167C452.43 271.296 450.257 276.275 450.131 281.555C449.754 300.739 443.19 319.075 442.733 338.259C442.698 343.806 442.973 349.35 443.556 354.866L444.631 367.318C428.004 366.351 411.423 364.869 394.888 362.873C394.408 357.14 392.796 351.581 391.321 346.034C385.28 323.355 381.409 300.138 379.76 276.704C378.879 264.263 377.976 251.869 376.615 239.475C375.391 228.206 372.99 216.868 374.431 205.622C375.185 200.511 376.769 195.561 379.119 190.976C379.862 189.149 381.139 187.598 382.779 186.531C383.597 186.13 384.467 185.845 385.363 185.684C387.955 185.151 390.587 184.837 393.23 184.744C393.876 184.689 394.527 184.752 395.151 184.93C396.265 185.494 397.18 186.394 397.77 187.506C402.865 195.28 410.075 201.384 418.525 205.077V205.077Z" fill="#F2F2F2"/>
<path d="M404.482 202.616C406.609 205.703 411.115 206.434 413.082 209.579C413.744 210.894 414.247 212.285 414.58 213.723C415.78 217.61 418.205 220.987 419.68 224.782C421.807 230.237 421.864 236.272 421.887 242.132C422.096 246.8 421.742 251.477 420.835 256.059C420.148 258.925 419.028 261.652 418.205 264.484C416.806 269.299 416.287 274.334 416.672 279.339C416.672 280.42 416.957 281.481 417.496 282.414C418.271 283.346 419.284 284.045 420.423 284.433C423.773 285.93 427.284 287.462 430.943 287.114C431.694 287.09 432.421 286.844 433.036 286.406C433.46 286.014 433.809 285.546 434.065 285.025L436.352 281.103C438.422 277.517 440.583 273.501 439.783 269.405C439.201 267.29 438.327 265.27 437.187 263.405C435.725 260.377 434.479 257.247 433.459 254.039C429.811 243.397 426.118 232.604 425.294 221.37C424.81 217.095 425.279 212.764 426.667 208.697C427.741 206.195 429.091 203.824 430.692 201.63C430.33 201.137 429.828 200.767 429.254 200.57C428.68 200.373 428.061 200.358 427.478 200.527C426.328 200.888 425.214 201.358 424.151 201.932C420.789 203.371 417.061 202.848 413.665 201.862C412.338 201.467 410.234 200.121 408.862 200.214C408.393 200.272 404.562 202.756 404.482 202.616Z" fill="#6C63FF"/>
<path d="M431.252 202.489C430.566 201.932 429.503 201.421 428.897 202.071C428.693 202.353 428.545 202.672 428.462 203.011C427.867 204.636 426.118 205.436 424.528 206.063C422.939 206.69 421.224 207.038 420.263 205.843C419.96 205.377 419.811 204.826 419.838 204.269C419.864 203.711 420.065 203.177 420.412 202.744C421.115 201.884 421.963 201.157 422.916 200.597C428.176 196.829 431.759 191.107 432.887 184.675C434.362 185.864 435.339 187.577 435.62 189.468C435.998 191.313 436.043 193.216 436.421 195.061C436.981 197.707 438.228 200.179 438.513 202.86C438.662 204.287 438.513 205.727 438.513 207.154C438.565 208.55 438.725 209.939 438.994 211.309C436.318 208.431 434.431 205.053 431.252 202.489Z" fill="#F2F2F2"/>
<path d="M408.107 194.609C406.964 193.506 405.82 192.462 404.677 191.336C399.659 186.365 395.87 180.261 393.619 173.522C392.155 174.682 390.543 176.214 390.509 178.164C390.639 179.544 391.164 180.855 392.018 181.936C396.342 188.847 399.197 196.598 400.4 204.694C401.018 203.714 401.874 202.913 402.885 202.366C403.896 201.819 405.029 201.546 406.175 201.572C407.982 201.572 416.089 206.446 416.672 205.216C417.53 203.289 409.48 195.92 408.107 194.609Z" fill="#F2F2F2"/>
<path d="M433.642 185.371C444.399 196.238 457.567 204.329 472.041 208.964C473.48 209.283 474.815 209.97 475.918 210.96C476.742 212.005 477.296 213.241 477.53 214.558C480.32 225.63 481.258 237.084 482.184 248.469C482.427 250.352 482.388 252.261 482.07 254.132C481.395 257.173 479.268 259.633 477.175 261.919C470.612 269.056 463.122 276.519 462.013 286.221C461.928 288.091 461.71 289.953 461.361 291.791C460.789 293.95 459.52 295.853 458.742 297.953C454.923 308.294 463.556 320.816 458.296 330.448C461.144 336 463.097 341.979 464.082 348.158C464.259 350.5 464.787 352.801 465.649 354.982C467.215 358.301 470.44 360.413 472.979 363.105C480.72 371.159 481.669 383.484 482.127 394.73C482.413 401.066 482.321 408.343 477.553 412.497C474.797 414.923 471.035 415.712 467.433 416.316C462.641 417.128 457.427 417.708 453.185 415.306C450.143 413.588 448.073 410.583 446.095 407.681C442.344 402.146 438.582 396.621 435.026 390.946C429.4 381.999 424.094 371.775 425.718 361.283C425.26 372.018 423.03 382.834 417.839 392.188C412.647 401.542 404.288 409.352 394.145 412.439C384.002 415.526 372.144 413.345 364.585 405.824C362.118 403.246 359.999 400.347 358.285 397.202C353.982 389.724 350.842 381.617 348.977 373.167C348.485 370.974 348.119 368.525 349.205 366.564C349.72 365.635 350.509 364.904 351.046 363.987C352.853 360.866 351.115 356.931 349.365 353.752C346.701 354.007 344.791 350.827 345.031 348.111C345.272 345.396 346.872 343.04 348.005 340.568C351.321 333.28 350.589 324.796 348.988 316.94C347.387 309.083 344.997 301.273 345.18 293.253C345.374 284.77 339.36 277.134 334.774 270.043C332.213 266.051 329.228 262.337 326.998 258.147C322.349 249.331 321.274 239.021 324.002 229.413C325.604 224.479 327.704 219.726 330.269 215.231L334.042 208.048C334.745 206.331 335.836 204.806 337.226 203.597C338.617 202.387 340.268 201.527 342.047 201.084L368.153 190.64C371.491 189.482 374.661 187.874 377.576 185.858C380.766 183.421 383.145 180.056 386.186 177.456C386.63 176.984 387.161 176.606 387.75 176.345C388.34 176.084 388.974 175.945 389.617 175.936C392.064 176.156 392.933 179.29 393.185 181.738C393.756 187.216 397.759 191.858 399.119 197.185C406.484 226.604 422.07 253.737 426.346 283.772C431.149 272.062 435.952 260.329 442.104 249.304C443.074 247.721 443.89 246.046 444.54 244.302C445.278 241.787 445.553 239.155 445.352 236.538C445.043 228.983 443.065 221.602 441.109 214.303C438.571 204.369 436.284 195.212 433.642 185.371Z" fill="#3F3D56"/>
<path d="M483.396 275.265C483.899 280.209 484.391 285.165 485.294 290.05C486.346 295.702 487.947 301.226 489.537 306.75C490.313 309.856 491.425 312.864 492.853 315.721C493.371 316.551 493.782 317.444 494.077 318.379C494.637 320.7 493.356 323.021 492.807 325.342C491.161 332.305 496.101 340.046 492.99 346.464C492.053 348.413 490.417 350.026 489.8 352.115C489.079 354.518 489.8 357.082 490.177 359.566C491.149 366.529 488.805 373.608 486.495 380.304L482.561 391.608C478.971 384.831 475.346 377.983 470.383 372.169C468.611 370.08 466.678 368.142 465.043 365.937C462.605 362.472 460.678 358.664 459.325 354.634C455.834 345.057 453.84 334.986 453.413 324.785C453.13 321.885 453.461 318.956 454.385 316.197C455.142 314.601 455.99 313.051 456.924 311.555C459.989 305.95 460.618 299.311 460.56 292.905C460.503 286.499 459.828 280.07 460.56 273.699C461.157 268.379 462.708 263.215 465.134 258.461C466.566 255.382 468.693 252.69 471.344 250.604C473.322 249.101 475.734 248.305 478.205 248.341C481.944 248.562 481.086 251.823 481.407 254.968L483.396 275.265Z" fill="#3F3D56"/>
<path d="M315.197 259.47C312.864 266.434 310.76 273.459 308.885 280.546C307.055 287.509 305.42 294.511 303.979 301.551C303.239 304.647 302.825 307.813 302.744 310.998C302.89 314.705 303.517 318.377 304.608 321.918C311.972 348.854 325.397 373.701 340.514 397.062C344.834 391.595 349.965 386.842 355.723 382.974C356.194 382.69 356.587 382.291 356.866 381.813C357.011 381.362 357.054 380.883 356.99 380.413C356.927 379.942 356.76 379.493 356.501 379.098C352.327 370.417 345.717 362.769 343.636 353.334C342.767 349.411 342.733 345.326 341.749 341.427C340.48 336.379 337.644 331.76 336.992 326.584C336.295 320.944 338.136 314.793 335.529 309.791C340.846 307.69 343.922 302.131 346.175 296.805C348.582 291.355 350.303 285.619 351.298 279.733C352.863 268.449 350.687 256.956 345.111 247.064C342.388 242.13 338.893 237.678 334.762 233.881C333.402 232.639 330.188 229.076 328.21 229.111C325.569 229.169 324.722 233.51 323.968 235.459C320.915 243.42 317.896 251.393 315.197 259.47Z" fill="#3F3D56"/>
<path d="M362.561 389.368C362.904 389.624 363.293 389.972 363.202 390.389C363.11 390.807 362.779 390.912 362.481 391.086C360.935 392.199 359.781 393.785 359.188 395.612C357.288 399.958 355.631 404.41 354.225 408.946C351.666 405.055 348.656 401.49 345.26 398.327C342.653 395.89 339.737 393.581 338.342 390.285C338.342 390.192 344.334 385.701 344.883 385.213C346.564 383.693 348.679 379.48 350.417 378.552C352.384 377.508 354.259 381.604 355.757 383.252C357.818 385.517 360.098 387.566 362.561 389.368V389.368Z" fill="#FBBEBE"/>
<path d="M455.551 138.277C455.471 136.756 455.277 135.074 454.133 134.087C453.13 133.383 451.921 133.043 450.703 133.124C444.036 132.903 437.141 134.041 430.852 131.766C426.712 130.269 423.179 127.391 419.142 125.604C415.105 123.817 409.937 123.341 406.678 126.346C404.208 128.668 403.533 132.23 402.676 135.515C400.787 142.763 397.426 149.531 392.807 155.383C389.708 154.408 387.49 151.6 386.06 148.652C381.2 138.602 383.59 126.602 387.044 115.948C388.187 112.374 389.457 108.834 390.726 105.306L393.516 97.5074C397.178 97.1424 400.58 95.4242 403.076 92.6796L404.276 95.639C407.377 95.5257 410.37 94.4526 412.853 92.5636C413.813 94.3972 416.283 94.8846 418.284 94.2927C420.286 93.7009 422.012 92.5636 424.002 91.9717C429.319 90.2309 434.991 92.9117 440.571 93.2135C442.933 93.1551 445.296 93.2248 447.65 93.4223C454.236 94.5016 458.89 100.792 460.903 107.244C462.241 111.538 463.35 116.819 467.524 118.339C467.615 119.964 464.78 120.277 464.539 121.82C464.511 122.335 464.63 122.847 464.882 123.294L468.713 131.638C466.882 132.105 464.955 132.008 463.179 131.36C461.452 135.48 455.723 141.422 455.551 138.277Z" fill="#192534"/>
<path d="M649.674 156.439C651.615 162.802 653.143 169.288 654.248 175.855C655.071 180.775 655.551 186.241 652.773 190.35C663.361 174.183 674.419 157.53 690.508 147.097C687.232 143.491 684.74 139.227 683.193 134.58C681.647 129.934 681.081 125.009 681.532 120.126C681.623 119.151 668.324 124.246 667.307 124.826C662.641 127.461 658.364 130.733 653.813 133.553C651.458 135.004 641.646 138.439 641.555 140.517C641.555 141.851 645.454 145.936 646.186 147.34C647.622 150.258 648.789 153.304 649.674 156.439Z" fill="#FBBEBE"/>
<path d="M698.879 766.156C696.265 764.287 693.201 763.171 690.012 762.926C686.823 762.681 683.628 763.316 680.766 764.764C675.586 767.479 672.098 772.62 667.387 776.102C659.291 782.067 648.599 782.543 639.119 785.769C636.604 786.628 633.928 787.905 632.864 790.411C632.508 791.465 632.366 792.581 632.446 793.692C632.527 794.803 632.828 795.886 633.333 796.875C634.918 800.46 637.695 803.365 641.178 805.08C645.432 807.146 650.326 807.239 655.037 807.297L695.975 807.784C708.553 807.935 721.212 808.086 733.711 809.676C736.626 810.047 739.783 810.454 742.355 809.003C746.541 806.682 747.021 800.81 746.701 795.97C745.858 783.709 743.158 771.653 738.696 760.226C738.204 758.961 737.553 757.522 736.169 757.29C735.187 757.245 734.222 757.558 733.448 758.172C721.898 765.135 707.273 769.069 694.991 763.499" fill="black"/>
<path d="M719.371 501.092C714.797 528.051 717.781 555.753 722.927 582.596C723.875 587.94 725.123 593.226 726.666 598.425C728.508 604.344 730.989 610.031 732.716 615.984C737.107 631.071 736.489 647.202 735.837 662.951L732.841 734.613C732.59 740.625 732.361 746.775 734.145 752.508C734.865 754.829 735.746 757.731 733.928 759.298C733.216 759.816 732.385 760.14 731.515 760.238C723.333 761.768 714.881 760.481 707.501 756.582L706.689 684.188C706.438 661.871 706.175 639.462 702.79 617.423C700.103 599.899 695.437 582.607 695.128 564.875C694.808 546.306 699.291 527.981 703.865 509.982C704.848 506.129 708.439 503.309 711.389 500.697C712.419 499.667 713.672 498.896 715.048 498.446C716.421 498.063 718.525 499.92 719.371 501.092Z" fill="#3F3D56"/>
<path opacity="0.1" d="M719.371 501.092C714.797 528.051 717.781 555.753 722.927 582.596C723.875 587.94 725.123 593.226 726.666 598.425C728.508 604.344 730.989 610.031 732.716 615.984C737.107 631.071 736.489 647.202 735.837 662.951L732.841 734.613C732.59 740.625 732.361 746.775 734.145 752.508C734.865 754.829 735.746 757.731 733.928 759.298C733.216 759.816 732.385 760.14 731.515 760.238C723.333 761.768 714.881 760.481 707.501 756.582L706.689 684.188C706.438 661.871 706.175 639.462 702.79 617.423C700.103 599.899 695.437 582.607 695.128 564.875C694.808 546.306 699.291 527.981 703.865 509.982C704.848 506.129 708.439 503.309 711.389 500.697C712.419 499.667 713.672 498.896 715.048 498.446C716.421 498.063 718.525 499.92 719.371 501.092Z" fill="black"/>
<path d="M633.505 416.838C631.812 423.905 635.403 431.228 635.003 438.493C634.774 442.892 633.07 447.278 633.859 451.596C634.648 455.913 637.69 459.162 639.314 463.12C640.498 466.425 641.124 469.909 641.166 473.425C641.635 482.106 641.258 490.833 640.937 499.479C640.4 513.985 640 528.573 641.886 542.952C643.529 555.409 646.866 567.575 651.801 579.103C653.296 582.238 654.532 585.495 655.494 588.839C656.126 591.955 656.546 595.112 656.752 598.286C657.839 608.61 660.569 618.687 664.837 628.123C667.753 634.587 672.841 639.729 674.454 646.587C675.986 653.156 674.957 660.084 676.066 666.734C676.878 671.666 678.856 676.331 679.954 681.206C681.383 687.507 681.349 694.041 682.069 700.47C684.128 719.039 692.441 737.607 687.478 755.619C686.483 759.239 684.94 762.918 685.637 766.609C685.98 768.419 686.849 770.206 686.46 772.005C686.14 773.537 684.974 774.721 684.379 776.172C683.236 778.887 684.448 782.113 686.483 784.214C688.655 786.172 691.179 787.685 693.916 788.67C702.344 792.326 711.069 796.04 720.217 795.958C721.327 796.019 722.436 795.812 723.453 795.355C725.1 794.485 725.912 792.593 726.609 790.852L731.298 779.084C731.869 777.657 732.441 775.986 731.652 774.663C731.103 773.937 730.438 773.31 729.685 772.806C725.9 769.568 726.758 763.522 727.764 758.659C730.335 746.17 731.759 733.466 732.018 720.71C732.521 695.271 728.393 669.983 724.276 644.881C722.847 636.166 721.406 627.392 718.559 619.036C715.711 610.68 711.515 602.638 712.201 593.957C712.933 584.58 710.531 574.751 712.201 565.501C713.87 556.252 716.512 547.2 718.216 537.962C720.423 525.974 720.972 513.753 721.646 501.591C721.932 496.624 722.298 491.494 724.585 487.084C725.923 484.508 727.867 482.303 729.365 479.808C733.23 473.321 733.848 465.278 737.541 458.686C739.291 455.565 741.703 452.814 742.984 449.472C743.883 446.835 744.355 444.068 744.379 441.278C744.742 434.275 744.358 427.251 743.236 420.331C723.77 410.278 702.182 405.195 680.343 405.523C671.984 405.662 663.533 406.521 655.689 409.457C648.21 412.277 641.395 416.234 633.505 416.838Z" fill="#3F3D56"/>
<path d="M680.388 784.516C677.027 788.763 677.255 794.833 675.105 799.835C672.498 805.904 666.689 809.792 661.178 813.332L626.872 835.382C624.997 836.542 622.984 837.97 622.298 840.128C621.972 841.506 622.032 842.949 622.47 844.295C623.288 847.207 624.815 849.863 626.909 852.021C629.003 854.178 631.597 855.768 634.454 856.643C637.49 857.377 640.608 857.7 643.728 857.606L659.153 857.815C663.853 858.001 668.559 857.815 673.23 857.258C677.507 856.631 681.669 855.389 685.923 854.6C693.665 853.173 701.623 853.3 709.376 851.919C714.124 850.972 718.813 849.744 723.419 848.24C729.022 846.534 734.728 844.759 739.531 841.382C740.853 840.565 741.926 839.392 742.63 837.993C743.442 836.078 742.996 833.885 742.538 831.854L735.174 799.011C734.758 796.276 733.776 793.661 732.292 791.34C730.657 789.135 727.718 787.673 725.168 788.613C724.116 789.099 723.122 789.706 722.207 790.423C718.433 792.941 713.596 793.359 709.136 792.57C706.255 792.048 702.447 791.247 700.125 789.309C698.364 787.835 697.838 785.549 696.34 783.878C695.29 782.783 694.025 781.925 692.627 781.358C691.229 780.792 689.729 780.531 688.224 780.591C686.72 780.651 685.245 781.032 683.895 781.708C682.545 782.384 681.35 783.341 680.388 784.516V784.516Z" fill="black"/>
<path d="M658.147 151.913C680.965 151.913 699.462 133.14 699.462 109.983C699.462 86.8259 680.965 68.0533 658.147 68.0533C635.329 68.0533 616.832 86.8259 616.832 109.983C616.832 133.14 635.329 151.913 658.147 151.913Z" fill="#FBBEBE"/>
<path d="M626.278 112.443C630.234 110.192 630.234 103.705 634.282 101.546C638.33 99.3875 642.927 103.136 645.523 106.919C649.307 112.46 651.933 118.728 653.242 125.337C653.608 127.217 653.951 129.271 655.346 130.582C656.741 131.894 658.57 132.056 660.354 132.242C665.576 132.768 670.806 133.248 676.043 133.681C681.875 134.157 688.027 134.54 693.322 131.998C695.411 131.05 697.206 129.541 698.513 127.635C699.561 125.804 700.31 123.813 700.732 121.739C703.465 111.19 706.221 100.513 706.449 89.6042C706.541 85.1014 706.152 80.4361 704.014 76.4903C702.767 74.1692 700.938 72.1499 700.423 69.5968C699.908 67.0436 701.566 63.7941 704.174 64.0727C701.817 64.171 699.47 63.7184 697.313 62.7497C695.243 61.5891 693.711 59.094 694.442 56.8194C688.633 57.5737 684.402 51.7479 679.874 47.9762C679.138 47.2353 678.144 46.8184 677.107 46.8156C676.311 47.017 675.543 47.3172 674.82 47.7092C672.533 48.5216 670.143 46.9781 667.799 46.305C661.509 44.5178 653.516 48.8349 648.851 44.1928C649.297 47.1522 645.717 49.1367 642.767 49.0787C639.817 49.0206 636.775 47.9181 633.985 48.9162C634.389 49.6663 634.625 50.4977 634.676 51.3511C634.726 52.2045 634.591 53.0587 634.278 53.8526C633.966 54.6465 633.484 55.3605 632.868 55.9436C632.252 56.5267 631.517 56.9645 630.715 57.2255L632.098 60.2893C630.673 60.5786 629.355 61.2665 628.294 62.2754C627.233 63.2843 626.472 64.5741 626.095 65.9991C624.574 72.0919 624.951 80.7494 625.317 87.0163C625.5 89.7667 628.142 111.411 626.278 112.443Z" fill="#192534"/>
<path d="M661.532 164.029C640.778 187.715 635.494 221.057 631.069 252.449L624.551 298.801C622.859 310.824 621.121 322.847 619.645 334.905C618.616 343.156 617.656 351.535 618.776 359.775C619.657 366.274 621.795 372.541 623.579 378.796C628.221 395.203 630.531 412.198 630.44 429.267C631.824 425.136 636.615 423.464 640.823 422.536C676.132 414.761 712.971 418.754 745.866 433.921C751.641 417.499 750.554 399.534 752.167 382.173C754.454 357.419 762.333 333.431 764.665 308.723C765.523 299.52 765.626 290.271 765.717 281.021C765.786 274.232 765.855 267.374 764.46 260.724C762.904 253.366 759.623 246.507 756.226 239.834C746.838 221.285 736.407 203.298 724.986 185.963C719.238 177.236 713.242 168.683 706.998 160.304C703.834 156.056 700.606 151.855 697.313 147.7C694.122 143.673 692.739 140.18 687.673 142.594C678.102 147.143 668.496 156.079 661.532 164.029Z" fill="#6C63FF"/>
<path d="M673.425 361.179C668.361 361.365 663.292 361.202 658.25 360.692C654.511 360.32 650.692 359.763 647.044 360.692C645.458 361.097 643.973 361.836 642.687 362.862C642.211 363.292 641.868 363.855 641.701 364.48C641.535 365.105 641.551 365.766 641.749 366.382C641.947 366.997 642.317 367.541 642.815 367.947C643.313 368.352 643.916 368.602 644.551 368.664L648.462 369.013C650.943 369.233 653.528 369.488 655.46 371.334C656.254 372.059 656.758 373.054 656.878 374.13C657.118 376.835 654.808 378.308 652.739 379.434C649.796 380.836 647.075 382.675 644.665 384.889C642.778 386.739 641.592 389.204 641.315 391.852C641.306 392.088 641.359 392.322 641.467 392.531C641.576 392.74 641.737 392.916 641.934 393.042C642.131 393.168 642.357 393.239 642.59 393.248C642.822 393.257 643.053 393.204 643.259 393.093C647.833 390.772 650.817 383.89 655.838 385.039C651.271 386.507 647.36 389.56 644.791 393.662C644.157 394.642 643.868 395.81 643.971 396.977C644.073 398.144 644.561 399.242 645.355 400.093C646.15 400.943 647.204 401.496 648.347 401.662C649.49 401.829 650.655 401.598 651.652 401.008C652.395 400.567 653.113 400.082 653.802 399.558C657.203 396.763 660.249 393.551 662.87 389.995C659.211 397.828 655.506 406.997 659.714 414.784C659.924 415.212 660.251 415.569 660.657 415.813C661.063 416.056 661.53 416.174 662.001 416.153C663.327 416.014 663.716 414.749 663.934 413.635C664.62 410.049 664.791 406.265 666.529 403.074C670.554 395.67 680.48 394.95 688.039 391.341C697.107 387.07 703.316 377.879 705.82 368.061C706.697 365.198 706.85 362.157 706.266 359.218C704.585 352.614 696.558 351.094 691.401 354.285C685.077 358.359 681.406 360.924 673.425 361.179Z" fill="#FBBEBE"/>
<path opacity="0.1" d="M665.397 231.281C673.402 243.827 687.295 250.894 699.211 259.703C702.118 261.624 704.652 264.071 706.689 266.921C709.696 271.633 710.12 277.621 709.502 283.168C708.725 290.491 706.403 297.536 704.105 304.522L699.108 319.667C695.94 329.276 692.67 339.083 686.643 347.16C685.1 349.214 683.304 351.407 683.373 353.984C683.506 355.472 684.01 356.902 684.837 358.138C686.765 361.332 689.307 364.1 692.311 366.277C695.314 368.454 698.718 369.996 702.321 370.811C704.478 371.368 706.739 371.368 708.896 370.811C711.984 369.883 714.305 367.33 716.455 364.916C726.746 353.392 737.038 341.705 744.471 328.185C751.732 314.99 756.077 300.333 760.08 285.814C761.728 280.47 762.876 274.979 763.51 269.416C764.356 258.971 761.658 248.527 757.244 239.092C752.83 229.657 746.758 221.115 740.503 212.817C734.599 204.667 728.04 197.028 720.891 189.978C708.45 178.176 693.23 171.236 676.58 177.932C664.825 182.667 660.423 192.543 659.371 205.193C658.48 214.326 660.599 223.501 665.397 231.281V231.281Z" fill="black"/>
<path d="M669.56 228.101C677.564 240.647 691.469 247.714 703.373 256.523C706.271 258.463 708.794 260.925 710.817 263.788C713.825 268.499 714.248 274.476 713.631 280.035C712.842 287.358 710.532 294.402 708.222 301.389L703.225 316.476C700.057 326.085 696.787 335.88 690.76 343.968C689.228 346.023 687.433 348.204 687.501 350.792C687.627 352.279 688.132 353.706 688.965 354.935C690.891 358.131 693.43 360.9 696.432 363.079C699.433 365.258 702.836 366.802 706.438 367.62C708.599 368.177 710.863 368.177 713.024 367.62C716.112 366.703 718.422 364.138 720.583 361.736C730.875 350.2 741.166 338.526 748.599 325.005C755.86 311.81 760.206 297.153 764.208 282.623C765.861 277.283 767.009 271.797 767.638 266.236C768.485 255.792 765.786 245.347 761.384 235.9C756.981 226.453 750.898 217.924 744.643 209.626C738.719 201.518 732.144 193.922 724.986 186.914C712.556 175.123 697.336 168.172 680.686 174.88C668.919 179.615 664.528 189.479 663.465 202.14C662.625 211.239 664.768 220.365 669.56 228.101V228.101Z" fill="#6C63FF"/>
<path d="M922.412 644.371C922.421 647.397 922.114 650.416 921.498 653.376C921.383 653.933 921.257 654.537 921.132 655.013C917.884 668.231 908.725 677.898 897.793 678.513C897.427 678.513 897.061 678.513 896.649 678.513C885.088 678.513 875.311 668.394 872.087 654.456C871.995 654.084 871.915 653.713 871.835 653.295C871.218 650.334 870.911 647.316 870.92 644.289C870.92 625.408 882.435 610.112 896.649 610.112C910.863 610.112 922.412 625.524 922.412 644.371Z" fill="#3F3D56"/>
<path opacity="0.1" d="M922.413 644.371C922.421 647.397 922.114 650.416 921.498 653.376C921.383 653.933 921.258 654.537 921.132 655.013C920.743 655.013 920.366 655.013 919.988 655.013C917.157 654.858 914.342 654.47 911.572 653.852C909.118 654.622 906.61 655.204 904.071 655.593C902.123 655.89 900.161 656.076 898.193 656.15H896.203C893.847 656.15 891.494 655.991 889.159 655.674C885.383 655.162 881.675 654.228 878.102 652.889C876.145 653.55 874.152 654.092 872.132 654.514C872.041 654.142 871.961 653.771 871.881 653.353C871.264 650.392 870.957 647.374 870.966 644.347C870.966 625.466 882.481 610.17 896.695 610.17C910.909 610.17 922.413 625.524 922.413 644.371Z" fill="black"/>
<path d="M977.301 580.704C977.312 572.395 975.392 564.201 971.698 556.786L941.44 566.337L968.004 550.484C963.548 543.954 957.704 538.522 950.904 534.589C944.104 530.656 936.52 528.323 928.713 527.761C927.47 525.847 926.107 524.018 924.631 522.283L881.177 536.012L916.821 514.74C910.002 509.429 901.999 505.906 893.52 504.482C885.04 503.058 876.346 503.777 868.205 506.576C860.065 509.374 852.73 514.166 846.849 520.527C840.968 526.888 836.722 534.622 834.488 543.045L871.709 586.53L831.332 556.89C821.104 564.253 813.822 575.099 810.814 587.454C807.806 599.809 809.271 612.849 814.943 624.199C820.616 635.549 830.117 644.453 841.716 649.289C853.315 654.124 866.24 654.57 878.136 650.545C888.896 654.559 900.655 654.889 911.618 651.485C919.26 653.192 927.182 653.138 934.802 651.328C942.421 649.518 949.544 645.997 955.646 641.025C961.748 636.052 966.674 629.755 970.061 622.595C973.448 615.436 975.211 607.597 975.22 599.656C975.22 598.495 975.22 597.334 975.105 596.174C976.587 591.156 977.327 585.943 977.301 580.704V580.704Z" fill="#6C63FF"/>
<path opacity="0.1" d="M976.397 590.545C960.418 587.472 944.032 587.26 927.981 589.919C909.811 592.971 891.24 599.679 873.47 594.781C863.041 591.903 854.03 585.242 843.842 581.54C834.011 578.059 823.422 577.416 813.253 579.683C809.378 589.091 808.254 599.433 810.015 609.472C811.776 619.511 816.348 628.824 823.184 636.297C830.02 643.77 838.832 649.087 848.567 651.614C858.301 654.14 868.546 653.769 878.078 650.545C888.839 654.559 900.598 654.889 911.56 651.485C919.203 653.192 927.125 653.138 934.745 651.328C942.364 649.518 949.487 645.997 955.588 641.025C961.69 636.052 966.616 629.755 970.004 622.596C973.391 615.436 975.154 607.597 975.162 599.656C975.162 598.495 975.162 597.335 975.048 596.174C975.6 594.325 976.05 592.445 976.397 590.545Z" fill="black"/>
</svg>
